<svg version="1.2" xmlns="http://www.w3.org/2000/svg" viewBox="0 0 2000 3000" width="2000" height="3000">
	<title>4034259_85237 (1)-svg</title>
	<style>
		.s0 { fill: #c0e4f7 } 
		.s1 { fill: #f1f1f1 } 
		.s2 { fill: #b1d5ea } 
		.s3 { fill: #9bb7c9 } 
		.s4 { fill: #7e97a5 } 
	</style>
	<path id="Layer" class="s0" d="m2 0v49h98c7.1 0 28.2 3.5 33.4-1.6 2.7-2.7 1.6-8.9 1.6-12.4v-35h7v49h133v-49h8v35c0 3.5-1.1 9.7 1.6 12.4 5.2 5.1 26.3 1.6 33.4 1.6h98v-49h8v49h133v-49h8v49h133v-49h8v35c0 3.5-1.1 9.7 1.6 12.4 5.2 5.1 26.3 1.6 33.4 1.6h98v-49h8v49h98c7.1 0 28.2 3.5 33.4-1.6 2.7-2.7 1.6-8.9 1.6-12.4v-35h8v49h133v-49l7.4 2.3 0.6 13.7v33h133v-49h7v35c0 3.5-1.1 9.7 1.6 12.4 4.6 4.6 22.1 1.6 28.4 1.6h76c5.9 0 22 2.8 26.4-1.6 2.7-2.7 1.6-8.9 1.6-12.4v-35h7v49h98c7.2 0 29.1 3.7 34.4-1.6 2.7-2.7 1.6-8.9 1.6-12.4 0-11.3 1.6-24-1-35h8v49h134v-49h7v35c0 3.5-1.1 9.7 1.6 12.4 5.2 5.1 26.3 1.6 33.4 1.6h98v-49h9v49h132v-49h8v49h26v8h-26v133h26v7l-23.7 1-2.3 10v25l26 1v4h-26c0 9.4-3.8 29.9 1.7 37.7 6.1 8.4 23.4 11.1 24.3 22.3l-26-15v48h26v7h-26v134h26v8h-26v133h26v8h-26v98c0 7.1-3.5 28.2 1.6 33.4 4.2 4.2 18.8 1.6 24.4 1.6v7c-5.6 0-20.2-2.6-24.4 1.6-5.1 5.2-1.6 26.3-1.6 33.4v98h26v9h-26v133h26v7h-26v133h26v8h-26v133c8.4 0 19.3 2.4 25-5h1c0 22.5-21 33.2-25.6 54-2.1 9.3-0.4 20.5-0.4 30v62h26v8h-26v133h26v8h-26l1.2 30 24.1 46 0.7 17h-1l-25-41v81h26v8h-26v133h26v8h-26v133h26v8h-26v133h26v7c-5.6 0-20.2-2.6-24.4 1.6-5.3 5.3-1.6 27.2-1.6 34.4v98h26v8h-26v98c0 7.1-3.5 28.3 1.6 33.4 4.2 4.2 18.8 1.6 24.4 1.6v7h-26v133h26v8h-26v133h26v9h-26v133h26v7h-26v125h-8v-125h-132v125h-9v-125h-98c-7.1 0-28.2-3.6-33.4 1.6-4.9 4.9-1.6 24.7-1.6 31.4v92h-7v-92c0-6.7 3.3-26.5-1.6-31.4-5.3-5.3-27.2-1.6-34.4-1.6h-98v125h-8c2.4-10.1 1-21.6 1-32v-59c0-7.7 3.3-25.2-1-31.7-3.6-5.4-23.1-2.3-29-2.3h-76c-5.9 0-22-2.8-26.4 1.6-4.9 4.9-1.6 24.7-1.6 31.4v92h-7v-89c0-8.1 3.5-26.9-1-33.7-3.4-5.1-20.5-2.3-26-2.3h-77c-5.9 0-25.4-3.1-29 2.3-4.5 6.8-1 25.6-1 33.7v89h-7v-92c0-6.7 3.3-26.5-1.6-31.4-5.1-5.2-26.3-1.6-33.4-1.6h-98v96c0 9.4 4.6 28.8-8 29v-125h-133v125h-8v-125h-98c-7.1 0-28.2-3.6-33.4 1.6-4.9 4.9-1.6 24.7-1.6 31.4v92h-8v-125h-133v125h-8v-125h-133v125h-8v-125h-133v125h-8v-125h-133v125h-8v-125h-133v125h-7v-92c0-6.7 3.3-26.5-1.6-31.4-5.2-5.2-26.3-1.6-33.4-1.6h-98v125h-2v-3000z"/>
	<path id="Layer" class="s1" d="m135 0v34l-1 13.4-9 1.6h-24-99v-49zm140 0v49h-133v-49zm141 0v49h-99-24l-9-1.6-1-13.4v-34zm141 0v49h-133v-49zm141 0v49h-133v-49zm141 0v49h-99-24l-9-1.6-1-13.4v-34zm141 0v34l-1 13.4-9 1.6h-24-99v-49zm141 0v49h-133v-49zm141 0v49h-133l-1-49zm141 0v36c0 3.2 1.2 9.7-1.6 12-5 3.9-21.2 1-27.4 1h-75c-5.7 0-25.3 3-29-1.6-2.3-2.9-1-9.9-1-13.4v-34zm97 0c12.2 0 29.2-3.1 40.8 0.3 4.1 1.2 3.2 6.4 3.2 9.7v28c0 2.8 0.9 8-1.6 10-2.4 1.9-7.5 1-10.4 1h-25-97v-49zm185 0v49h-134v-49zm140 0v49h-99-24l-9-1.6-1-13.4v-34zm141 0v49h-132v-49zm34 0v49h-26v-49zm-1865 57v133h-133v-133zm140 0v133h-133v-133zm141 0v88l1 45h-134v-133zm141 0v133h-133v-133zm141 0v133h-133v-133zm141 0v133h-133v-133zm141 0v133h-133v-133zm141 0v133h-133v-133zm141 0v133h-133v-133zm141 0v130l-134 3v-133zm141 0v133c-23.8 0-48.3 1.7-72-0.1-20.9-1.5-40.7-7.9-62-3.9v-129zm141 0v133h-134v-133zm140 0v133h-133v-133zm141 0v133h-132v-133zm34 0v133h-26v-133z"/>
	<path id="Layer" class="s2" d="m1460 188l1 1zm-60 3l1 1zm82.7 2.3l0.6 0.4zm4.4 0.6l-2 2v-2zm-109.4 2.4l0.7 0.3z"/>
	<path id="Layer" fill-rule="evenodd" class="s1" d="m124 197c2.7 0 7.1-0.8 9.4 1 4.3 3.5 1.6 20.8 1.6 26v78c0 5.3 2.9 25.8-2.3 28.4-8.8 4.3-27.9 0.6-37.7 0.6h-93v-134zm18 10l1.6-9 9.4-1h122v134h-133zm141 1l1-9.4 9-1.6h91l33 1-1 42v80c-5.3-2.9-8.2-9.2-11.6-14-12-17.2-27.7-52-53.4-44l18 11 28.1 38 12.9 20h-127zm232-11l43 1-1 45v88c-14.7-0.5-10.9-21-18.1-29.7-2.2-2.7-7.2-1.6-8.1 1.9-1 3.8 2.8 11.1 4 14.8 1.3 4.4 3.4 8.4 4.2 13h-115v-134zm50 10l1.6-9 9.4-1h122v134h-62c0.3-14.1 4-28 4.9-42 1.2-17.8 0.1-36.1 0.1-54 0-4.9 2.9-30.5-5-28.6-7.3 1.7-4 23.7-4 29.6 0 31.8-0.2 63.6-6 95h-61zm141 0l1.6-9 9.4-1h122v37c-11.5-4.2-16.3 11.9-19.9 20-7.2 16.2-15.7 31.3-23.9 47-4.7 8.7-9.8 20.6-16.8 27.7-3.7 3.7-10.7 2.3-15.4 2.3h-41c4.2-9.8 4.9-22.4 6.4-33 0.5-3.1 2.4-10.4-2.5-11.1-4.1-0.5-6.2 4.9-6.7 8.1-1.7 11-6 25-4.2 36h-9zm170-10h74c5.7 0 25.3-3 29 1.6 3 3.8 1 14.7 1 19.4v97c0 3.6 1.6 12.4-1.6 15-5 3.9-21.2 1-27.4 1h-74c-5.7 0-25.3 3-29-1.6-3-3.8-1-14.7-1-19.4v-97c0-3.6-1.6-12.4 1.6-15 5-3.9 21.2-1 27.4-1zm234 0l9.4 1 1.6 9v124h-133v-134zm141 0l9.4 1 1.6 9v24l-0.2 67-8.8 33h-124v-134zm18 24c0-5.3-2.3-18.1 1-22.4 3.2-4 17.3-1.6 22-1.6h47c6.7 0 15.8-1.6 22 1-24.2 11.4-46.8 24.8-64.7 45.2-9.8 11.1-16.3 28.4-27.3 37.8zm71.6 103c-6-21.7-22 3.1-29 6.4-5.9 2.8-17.1 0.6-23.6 0.6-4.4 0-17.1 2.3-18.7-3.1-4.4-15 1.3-31.7 7.4-44.9 14.9-32.1 41.2-57.8 72.3-74.2 12.7-6.7 25.5-11.8 40-11.8 3.3 0 9.6-1.2 12.4 1 4.6 3.7 1.6 23.3 1.6 29v77c0 5.2 2.8 22.5-1.6 26-3.4 2.7-12.3 1-16.4 1h-44c0-2.3 0.2-4.8-0.4-7zm69.4-117c0-2.6-0.7-7.1 1.6-9 2.4-1.9 7.5-1 10.4-1h27c30.7 0 53 7.7 76 29.1 6.2 5.8 15.3 13.7 18.3 21.9 3.5 10 0.7 25.4 0.7 36v34c0 3.2 1.2 9.7-1.6 12-2.4 1.9-7.5 1-10.4 1h-122zm121-10l12 1.6 1 10.4v26l-22.7-20.5-26.3-16.5v-1zm90 134c-7.1 0-20.2 2.5-26.7-0.6-2.9-1.4-3.1-6.6-3.9-9.4-2.3-8.1-5.2-16.2-8.3-24-4.9-12.2-11.8-24-19-35-3.6-5.4-9.1-10.9-11.4-17-2.5-6.8-0.7-16.8-0.7-24 0-5.3-2.3-18.1 1-22.4 3.5-4.3 20.8-1.6 26-1.6h77c5.4 0 26.8-3 29.4 2.3 4.3 8.8 0.6 27.9 0.6 37.7v94zm82 0c-2.7 0-7.1 0.8-9.4-1-4.3-3.5-1.6-20.8-1.6-26v-77c0-5.4-3-26.8 2.3-29.4 8.8-4.3 27.9-0.6 37.7-0.6h93v134zm253-134l9 1.6 1 10.4v25c-15.1 0-32.5 2.1-46 9v1l32 21.3 13 10.8 1 16.9v38h-132v-134zm18 10l1.6-9 24.4-1v37l-26-1z"/>
	<path id="Layer" class="s2" d="m1494.7 198.3l0.6 0.4zm-125.6 0.6l1 1zm-8.4 3.4l0.7 0.3zm142.3 0.7l1 1zm-864 3l1 1zm705 4l1 1zm179 6l1 1zm449 22h-2v-2z"/>
	<path id="Layer" class="s1" d="m802.6 303c8.1-13 15.5-27.1 22.1-41 3.5-7.5 5.9-20.9 14.3-24v93h-52c2.9-10.2 10-19.1 15.6-28z"/>
	<path id="Layer" class="s2" d="m1950.7 238.3l0.6 0.4z"/>
	<path id="Layer" class="s1" d="m1940 250.4l-7.1-6.2 8.1-3.3 25-2.9v30zm60-12.4v55c-7.1-3.3-22.1-10.8-25.3-18.2-4-9.5-0.7-26.6-0.7-36.8z"/>
	<path id="Layer" class="s2" d="m1944 239l1 1zm-399 9l1 1zm389 0l1 1zm2.3 0.7l0.4 0.6zm-1115.4 1.4l1 1zm726 2l1 1zm-728.6 4.6l0.3 0.7z"/>
	<path id="Layer" class="s1" d="m1562.8 274.8c10.3 17.1 18.7 36.3 21.2 56.2h-33v-73c5.2 4.3 8.3 11.1 11.8 16.8z"/>
	<path id="Layer" class="s2" d="m352 262l1 1zm14 0l1 1zm449.3 0.7l0.4 0.6zm465.6-0.6l1 1zm-4 7l1 1zm-5 8l1 1zm-640 4l1 1z"/>
	<path id="Layer" class="s1" d="m1999 298.3c4.3 7.2 1 24.4 1 32.7h-26v-48c6.5 2.5 21.3 9.3 25 15.3z"/>
	<path id="Layer" class="s2" d="m1568 284l1 1zm-300 2l1 1zm301 0l1 1zm421 1l1 1zm-723.3 1.3l0.6 0.4zm303.4-0.4l1 1zm1 2l1 1zm-850.7 2.7l0.3 0.7zm853 1l0.4 0.6zm-309.4 0.4l1 1zm-466 1l1 1zm464 4l1 1zm-724 1l1 1zm1038 0l1 1zm-1045 5l1 1zm262 0l1 1zm-75 2l1 1zm-88.6 2.6l0.3 0.7zm951 2l0.3 0.7zm-323.3 3.3l1 1z"/>
	<path id="Layer" class="s1" d="m1321 331h11c0-12.9-7.5-10.2-11 0z"/>
	<path id="Layer" class="s2" d="m1583 320l1 1zm-258 1l1 1zm-919 2l1 1zm375 1l1 1zm802.7 0.3l0.6 0.4zm-956.6 1.6l1 1z"/>
	<path id="Layer" class="s3" d="m627 327l1 1z"/>
	<path id="Layer" class="s2" d="m539 328l1 1z"/>
	<path id="Layer" class="s1" d="m1261 329l1 1z"/>
	<path id="Layer" class="s2" d="m1314 329l1 1zm-903 2l1 1zm366.7 0.3l0.6 0.4zm807.4 1.6l1 1zm-952.7 1.7l0.3 0.7zm680.7 1.3h-2l1-2zm-898 0l1 1zm917.3 0.7l0.4 0.6z"/>
	<path id="Layer" fill-rule="evenodd" class="s1" d="m95 338c9.7 0 29-3.8 37.6 0.6 5.4 2.7 2.4 23 2.4 28.4v78c0 5.2 2.7 22.5-1.6 26-2.3 1.8-6.7 1-9.4 1h-122v-134zm47 10l1.6-9 9.4-1h122v134h-133zm141 0l1.6-9 9.4-1h122v134h-133zm220-10c11.5 0 24.6-1.7 36 0.1 4.8 0.8 5.4 6.8 10 7.7 5.3 1 5.3-4.2 5-7.8 5.1 1.1 3 10.7 3 15v39c0 3.8 1.5 11.5-1.3 14.5-4.1 4.3-11.8 6.9-16.7 10.4-13 9.1-25.9 18.7-37 30.1-5.8 6-13.3 22-21 24.7-5 1.7-12.7 0.3-18 0.3h-39v-123c14 8.2 28.6 38.5 48 28v-1c-15.6-8-36-20.3-42-38zm62 18l1-16.4 9-1.6h123v44c-25.7-0.2-49.1-4-75 0.6-20.3 3.6-38.3 13.7-58 18.4zm255.2 115c-3.8-2.2-6.1-7.5-8.6-11-5.6-7.8-11.5-15-18.2-21.8-13.7-14.1-31.6-26.7-48.4-36.7-7.8-4.7-16.5-9.1-25-12.2-3.6-1.4-10.6-2.5-13-5.8-1.8-2.7-1-7.4-1-10.5 0-8.6-3.2-25 0.6-32.7 2.3-4.6 16.1-2.3 20.4-2.3 13.3 0 32.1-3.5 44.9 0.3 3.8 1.2 2.3 7.1 6.2 7.5 4.3 0.4 6.2-4.5 6.9-7.8h54v134c-5.3 0-14.1 1.7-18.8-1zm26.8-116c0-3.9-1.5-12.1 1-15.4 3.7-4.6 23.3-1.6 29-1.6h74c6.2 0 22.4-2.9 27.4 1 3 2.4 1.6 9.7 1.6 13v76c0 4.2 1.3 11-1 14.7-4 6.3-19.5 9.7-26 13.2-8.5 4.5-18.8 13.6-28 15.8-7.6 1.8-17.2 0.3-25 0.3h-53v-44c0-6.4-1.5-15 1.1-21 3.7-8.7 13.1-15.8 19.6-22.4 5.7-5.8 12.4-10.7 17.9-16.3 1.3-1.3 1.7-3.1 0-4.2-3.8-2.6-8.9 2.4-11.6 4.7-9.6 8.2-16.7 19.8-27 27.2zm263-17l9.4 1 1.6 9v124h-133c0-6.2-2.6-20.2 1-25.4 9.8-13.6 38.5-5.3 47-21.6l-19 5.6-29 9.4v-102zm141 0l0.3 59 10.4 36 0.3 39h-133v-134zm11 18v44h-1c-5.3-17.9-5.4-43.9-1-62zm63 116c-8.6 0-23.2 2.9-30-3.1-10.2-9.1-23.1-28.2-25.7-41.9-3.1-16.9-0.3-36.8-0.3-54v-25c0-2.6-0.7-7.1 1.6-9 2.6-2 8.3-1 11.4-1h29c-4.3 23.2-0.6 57.3 19.3 72.9 10.2 8 28.6 18 39.1 5 8.6-10.6-0.1-18.9-7.8-26.2-11.3-10.5-29.9-31.9-21-49.4 1.9-3.7 9-2.3 12.4-2.3h36c3.5 0 11.5-1.5 13.4 2.3 4.3 8.8 0.6 27.9 0.6 37.7v94zm6-132.4c3.5 4.4 0.3 14.9 2.1 20.4 5.2 16.2 15.4 24.4 27 35.8 3.4 3.4 6.4 9.4 3.9 14.1-6.7 12.6-26.4 1.6-32.3-5.6-14.3-17.6-14.1-45-13.7-66.3 3.3 0 10.6-1.4 13 1.6zm79 10.4c0-2.9-0.9-7.9 1-10.4 3.5-4.3 20.8-1.6 26-1.6h77c5.7 0 25.3-3 29 1.6 2.3 2.9 1 9.9 1 13.4v75c0 5.3 1.3 13.2-1.2 18-3.6 7-22.5 22.7-29.8 25.4-8.7 3.2-22.7 0.6-32 0.6h-71zm141 16c0-6-2.8-21.6 1-26.4 1.7-2.2 5.6-1.6 8-1.6 5.6 0 24.6-3.1 25.8 4.1 1.4 8.1-0.5 17.9-2 25.9-4.3 23.3-14.5 52.7-32.8 69zm0.9 80c3.2-7.9 12-14.7 16.8-22 9.2-14.2 16.2-30.6 20.7-47 2.3-8.7 3.6-17.9 3.6-27 0-3-1.1-8.8 1.6-11 3.7-2.9 13.9-1 18.4-1h51c4.4 0 17-2.2 20 1.6 1.9 2.5 1 7.5 1 10.4v122h-134c0-7.7-2-18.8 0.9-26zm140.1-98l1.6-9 9.4-1h122v134h-133zm264-10l9 1.6 1 27.4v74c-14.8 4.1-18.3 25.1-31.2 30.4-7.8 3.2-21.4 0.6-29.8 0.6h-71v-134zm44 0c0 15.9-2.6 28.4-9 43-4.6 10.3-12.7 24.5-10 36l19-8v63h-26v-134z"/>
	<path id="Layer" class="s2" d="m417 339l1 1zm834.7 1.3l0.6 0.4z"/>
	<path id="Layer" class="s3" d="m1586 340l1 1z"/>
	<path id="Layer" class="s2" d="m420 343l1 1zm130 2l1 1zm760.3 0.7l0.4 0.6zm-886.4 1.4l1 1z"/>
	<path id="Layer" class="s0" d="m1999 358l1 1z"/>
	<path id="Layer" class="s2" d="m1999 359l1 1z"/>
	<path id="Layer" class="s0" d="m2000 360l-5 39 5-4-3 9h3v5l-19 8c-2.9-9.9 5.7-36.9 14-43l3-7v-7z"/>
	<path id="Layer" class="s2" d="m1335.3 365.7l0.4 0.6zm661.3 0.7l0.7 0.3zm-685.7 2.7l1 1zm27 2l2 3z"/>
	<path id="Layer" class="s0" d="m1338 373l1 1z"/>
	<path id="Layer" class="s2" d="m1994 373l1 1zm-411.7 5.7l0.4 0.6z"/>
	<path id="Layer" class="s1" d="m1999 378l-4 21c5.8-4.4 6.8-14.3 4-21z"/>
	<path id="Layer" class="s2" d="m676.7 380.3l0.6 0.4z"/>
	<path id="Layer" class="s1" d="m565 425c0-4.9-1.7-13.6 1.6-17.6 4.6-5.7 16.7-8.4 23.4-10.7 23.6-8.4 51.9-13.8 77-12.7 6.8 0.3 25.5-0.2 30 5.7 3.3 4.4 1 16.9 1 22.3v60h-133z"/>
	<path id="Layer" class="s3" d="m707 385l1 1z"/>
	<path id="Layer" class="s2" d="m1314.7 385.3l0.6 0.4zm-63.6 2.6l1 1zm-530 2l1 1zm-118.4 1.4l0.7 0.3z"/>
	<path id="Layer" class="s1" d="m785 443c8.3 8.3 18.4 18 23 29h-102v-54l1-27c29.2 12 55.7 29.7 78 52z"/>
	<path id="Layer" class="s2" d="m1318 395l1 1zm-742 6l1 1z"/>
	<path id="Layer" class="s1" d="m1999 401l-2 3c2.4 0 3.1-0.7 2-3z"/>
	<path id="Layer" class="s2" d="m750 405l1 1zm616.3 0.7l0.4 0.6zm631.6 1.4l1 1zm-1438 2l1 1zm284 0l1 1zm1150 0l1 1z"/>
	<path id="Layer" class="s1" d="m557 431v41h-67c14.8-26.5 42.1-43 66-60z"/>
	<path id="Layer" class="s2" d="m1256.3 414.7l0.4 0.6zm727.6-0.6l1 1zm-620 5l1 1zm-105 4l1 1zm3 9l1 1z"/>
	<path id="Layer" class="s0" d="m363 441l-1 2c15.9-1.1 37.7 6.4 53 11v1c-12.9 9.3-44.1-2.6-58-7.7-5.4-2-9.5-5-12-10.3 8.2-3.9 10.7 2.3 18 4z"/>
	<path id="Layer" class="s2" d="m1015 435l1 1zm-6.3 2.3l0.6 0.4zm540.4 1.6l1 1zm-1188 2l1 1zm1.6 1.4l0.7 0.3zm630.7 0.3l0.3 0.7zm-4.3 1.3l1 1z"/>
	<path id="Layer" class="s1" d="m1966 445v27h-24l21-27z"/>
	<path id="Layer" class="s2" d="m982 447l1 1z"/>
	<path id="Layer" class="s1" d="m1287 472h-18v-24z"/>
	<path id="Layer" class="s2" d="m976 450l1 1z"/>
	<path id="Layer" class="s1" d="m980 450v22h-41c8.4-10.2 28.4-18.6 41-22z"/>
	<path id="Layer" class="s2" d="m397.7 451.3l0.6 0.4zm3.4 0.6l1 1z"/>
	<path id="Layer" class="s1" d="m1544 454v18h-23l20-18z"/>
	<path id="Layer" class="s2" d="m412 456l1 1zm1126 0l1 1zm-589 7l1 1zm-466 7l1 1zm454 1l1 1zm-2 1l1 1zm353 1l1 1zm13 2l2 2zm637 0l1 1zm-1019 1l1 1zm591 3h-1l1-3zm-1032 0l1 1z"/>
	<path id="Layer" fill-rule="evenodd" class="s1" d="m95 480c9.8 0 28.9-3.7 37.7 0.6 5.2 2.6 2.3 23.1 2.3 28.4v77c0 5.2 2.7 22.5-1.6 26-2.3 1.8-6.7 1-9.4 1h-122v-133zm180 0v103c-9.6-3-18.4-8.8-27-14-5.1-3.1-10.1-6.5-15-10-5.2-3.6-13.6-14.2-20.1-14.7-3.2-0.2-6.3 3.2-4.1 6.2 3.5 4.6 11.5 8.9 16.2 12.4 10 7.6 20.8 14.4 32 20.3 4.8 2.6 12.8 4.3 16.4 8.4 3.8 4.3 1.6 16 1.6 21.4h-133v-133zm141 0v133c-15.7 0-33.6 2.4-49-0.2-5-0.9-9-4.9-14-6.3-11.8-3.3-24.1-5-36-8.2-8.4-2.3-27.4-4.5-33-12-4-5.4-1-21.7-1-28.3v-78zm61 0c-9.1 21.9-17.3 41.9-18.9 66-1.6 22.9 4.1 44.5 5.9 67h-40v-133zm-4 30c2.1-7.5 5.5-24.6 12.4-29 4.7-3 15.1-1 20.6-1h51v51c-13.9-6.6-28.7 3.3-33.8 17-7.3 19.7-1.7 45.4 3.8 65h-52c-4.7-34.6-12-68.2-2-103zm225-30v133h-133v-133zm83 0c8.9 0 23.6-2.9 31.8 0.6 6.6 2.8 10.9 17.2 13.4 23.4 10.4 25.7 12.8 49.6 12.8 77 0 7.6 2.8 24.4-2.9 30.4-4.1 4.4-20.4 1.6-26.1 1.6h-75c-5.5 0-24.4 2.9-28-1.6-1.8-2.3-1-6.7-1-9.4v-122zm58 0v27h-1l-13-27zm53 0l21 1c-5.1 0.2-8.6 1.3-11 6l25-6.8 53-0.2v93c0 9.8 3.7 28.9-0.6 37.7-2.6 5.2-23.1 2.3-28.4 2.3h-77c-5 0-22.8 2.7-25.9-1.6-1.7-2.3-0.2-6.8-0.1-9.4 0.2-8.7 2-17.3 2-26 0.2-31.9-3-63.9-3-96zm229 0v133h-133v-133zm141 0v123l-1.6 9-9.4 1h-122v-133zm32 0.6c8 2.6 15.3 10.9 23 14.9 12.4 6.5 29.1 9.5 43 10.4 10.1 0.7 19.9-0.3 30 0.1 3.2 0.2 9 0.2 11.4 2.6 4.1 4.1 1.6 17.9 1.6 23.4v58c0 5.1 2.2 17.3-1 21.4-3.7 4.6-23.3 1.6-29 1.6h-77c-5.2 0-22.5 2.7-26-1.6-1.8-2.3-1-6.7-1-9.4v-122c7.6 0 17.8-1.8 25 0.6zm109-0.6v21c-29-1.2-75.2 4.5-96-21zm38 67c13.9-0.3 27.2-7 40-11.6 12.9-4.6 27.3-8.6 34.7-21.4 4.9-8.4-8.1-26.4 0-33 3.7-2.9 26.5-2.7 28 2.1 2.3 7.8 0.3 18.8 0.3 26.9v60c-4.6-1.4-7.9-4.8-13-4.9-19.6-0.7-41.4 16.2-60 21.9-8.7 2.6-23.6 2.6-30.8 7.7-7.1 5.1-3.7 11.9-1.2 18.3-6.3 0-22.4 2.9-27.4-1-4.1-3.3-1.6-19-1.6-24v-73c7.2 4.7 9.6 19.9 11 28 7 0.5 12.7 4.2 20 4zm67-67c-3.2 11.3 5.8 27.1-1.2 36.3-10.6 13.9-40.3 21.7-56.8 24.9-6.6 1.3-15.2 1.6-20.7-3.1-4.8-4-5.4-12.6-7.8-18.1-2.7-5.9-8.7-10.1-10.9-16-2.5-6.7-0.6-16.9-0.6-24zm177 0v122l-1 9.4-9 1.6h-124v-133zm18 133c-2.7 0-7.1 0.8-9.4-1-4.4-3.5-1.6-20.8-1.6-26v-77c0-5.3-2.9-25.8 2.3-28.4 8.8-4.3 27.9-0.6 37.7-0.6h93v133zm226-133l-29.3 58-4.7 37-16 38h-45v-133zm-6.3 20c3-5.7 6.9-15.5 12.6-19 6.8-4.1 22.8-1 30.7-1v133h-81l12-32c7.4 4 11.5 12.3 21 12.7 17.4 0.7 27.1-23.4 23.6-37.7-2.1-8.3-11.2-14.9-19.6-12.1-3.1 1-6.2 2.9-8.8 4.8-4.6 3.3-7.8 7.9-11.2 12.3h-1c4.1-21.6 11.4-41.6 21.7-61zm77.3-20v133h-26v-133z"/>
	<path id="Layer" class="s2" d="m920 481l1 1zm-104 2l1 1zm101 0l1 1zm-11 3l1 1zm410 2l1 1zm15.7 7.3l0.6 0.4zm16.4 3.6l1 1zm51 2l1 1zm-573 2l1 1zm1089 1l1 1zm-1086.7 3.7l0.3 0.7zm681.7 3.3l1 1zm-1 2l1 1zm-678 2l1 1zm1 2l1 1zm0 3l1 1zm1073.3 4.7l0.4 0.6zm-1444 2l0.3 0.7zm373 0l0.3 0.7zm665.7 0.3l1 1zm-2 1l1 1zm405 1l1 1z"/>
	<path id="Layer" class="s0" d="m1461 551.5c19-3.9 34.9-16.4 54-19.9 7.9-1.4 23.9-0.7 21.5 11.4-5.1 25-39.2 21.2-54.5 33l-10 1c-9.8 7.8-33 9.1-41.3-1.3-4-4.9-2.9-11.4-5.7-16.7v-1c9.1-7.3 24.8-4.2 36-6.5z"/>
	<path id="Layer" class="s2" d="m836.3 533.7l0.4 0.6zm583 0l0.3 0.7zm-878.3 0.3l1 1z"/>
	<path id="Layer" class="s1" d="m537.6 612c-4.6-3.5-3.3-14-3.8-19-1.5-16.4-8.9-36.5 0.4-52 2.9-4.6 11.5-9.5 15-2.9 3 5.8 2.8 15.5 2.8 21.9v21c0 10.8 0.2 21.3 1 32-4 0-12.1 1.5-15.4-1z"/>
	<path id="Layer" class="s2" d="m1532 534l1 1zm-993 1l1 1zm10 1l1 1zm871 1l1 1z"/>
	<path id="Layer" class="s1" d="m1517 558.3c-11.4 7.2-25.3 9.6-38 13.1-9.5 2.7-18.9 6.9-29 6.6-5.8-0.3-23.2-11-14.4-18 4.8-3.8 21-2.8 27.4-4.1 18.2-3.9 33.4-15.6 52-18.5 18.4-2.8 12.7 14.1 2 20.9z"/>
	<path id="Layer" class="s2" d="m1458 542l1 1zm30 3l1 1zm-1281 1l1 1zm1279 0l1 1zm411.7 1.3l0.6 0.4zm-1690.6 0.6l1 1zm1271 1l1 1zm-7 3l1 1z"/>
	<path id="Layer" class="s1" d="m1936 565c-0.1 9.3-4.5 21.2-15 22.8-18.7 2.8-20.2-17.4-12-28.7 3.6-5 12.2-5.8 18-6.7 8.7-1.3 9.1 5.6 9 12.6z"/>
	<path id="Layer" class="s2" d="m1464.7 554.3l0.6 0.4zm-9 2l0.7 0.3zm59.3 5.7l1 1zm-1273 3l1 1zm598.7 0.3l0.7 0.3z"/>
	<path id="Layer" class="s3" d="m1506 566l1 1z"/>
	<path id="Layer" class="s2" d="m1936.3 569.7l0.4 0.6z"/>
	<path id="Layer" class="s1" d="m1535.3 587c-5.6 8.8-17.6 13.7-27.3 16.6-15.4 4.6-35.9 9.8-52 9.4-6-0.2-16.9-5.9-12.6-13.7 2.2-3.9 17.1-4.5 21.6-5.7 19.8-5.7 38-17.2 58-22 10-2.5 18.4 5.8 12.3 15.4z"/>
	<path id="Layer" class="s2" d="m1518 572l1 1zm-35.3 2.3l0.6 0.4zm31 0l0.7 0.3zm-1255.7 0.7l1 1z"/>
	<path id="Layer" class="s3" d="m1480 575l1 1z"/>
	<path id="Layer" class="s2" d="m1471.3 577.7l0.4 0.6zm426.6 1.4l1 1zm-405 3l1 1zm45 0l1 1zm363 2l1 1zm-1623 1l1 1zm244 0l1 1zm1387 0l1 1zm-426 1l1 1zm429 1l1 1z"/>
	<path id="Layer" class="s1" d="m1544 588l-1 25c-9.9-4.3-10.9-1.1-21-0.1-9.2 0.9-18.8 0.1-28 0.1v-1c17.1-3.5 36.8-9.8 48-24z"/>
	<path id="Layer" class="s2" d="m1888 589l1 1zm-1595 2l1 1zm1632 0l1 1z"/>
	<path id="Layer" class="s0" d="m885 604.7c14-2.3 28.1-5.5 42-8.4 8.4-1.7 17.6-4.8 26-2.3l-5 3 1 2c-8.9 0-26.8 8.6-34 4-3.3 5.1-23.9 6-30 5l-5 1c-3.7 4.3-12.3 1.5-17 0 2.6-8.2 15.2-3.2 22-4.3z"/>
	<path id="Layer" class="s2" d="m524.3 595.7l0.4 0.6z"/>
	<path id="Layer" class="s1" d="m314 605.3l35 7.7h-47l-17.4-1-1.6-16z"/>
	<path id="Layer" class="s2" d="m839.7 596.3l0.6 0.4zm109 1l0.7 0.3zm935.7 1.3l0.3 0.7zm-949.7 0.7l0.7 0.3zm-409.7 0.7l1 1zm1001 0l1 1zm-1199.3 1.3l0.7 0.3zm1197.3-0.3l1 1z"/>
	<path id="Layer" class="s3" d="m331 602l1 1z"/>
	<path id="Layer" class="s2" d="m1522 602l1 1zm-1186.3 1.3l0.6 0.4zm579.7 0.3l0.3 0.7zm-575.3 0.3l1 1zm1096.3 1.7l0.4 0.6zm74.6 0.4l1 1zm-625.3 2.3l0.7 0.3zm551.3-0.3l1 1zm-556.3 1.3l0.6 0.4zm-416.6 0.6l1 1zm89.6 0.4l0.7 0.3zm884.3-0.3l1 1zm-1082 6l1 1zm1100.7 1.3l0.7 0.3zm-1098.7 1.7l1 1z"/>
	<path id="Layer" class="s3" d="m529 620l1 1z"/>
	<path id="Layer" class="s1" d="m135 621v99 24l-1.6 9-9.4 1h-25-97v-133zm140 0v133h-99-24l-9-1.6-1-9.4v-25-97zm141 0v55c0 4.6 2 15.5-1.6 18.9-7.6 7.2-26.9 13.9-37.4 13.9-7.9 0-11.2-5.1-19-0.8v1c19.5 12.7 38.7-2.5 58-8l1 52-35 1h-66-23l-9-1.6-1-9.4v-25-97z"/>
	<path id="Layer" class="s2" d="m364 621l1 1z"/>
	<path id="Layer" class="s1" d="m467 621c7 33.4 27.8 66.7 50.5 91.7 11.6 12.9 31 25.7 38.5 41.3h-132c0-16-4.2-38.5 0.3-53.9 2.6-8.9 20.2 5.2 18.8-6.1-1.1-8.3-14.4-4.1-19.1-3v-70z"/>
	<path id="Layer" class="s2" d="m467 621l1 1z"/>
	<path id="Layer" fill-rule="evenodd" class="s1" d="m514 621c3.7 0 11.1-1.4 14.3 1 5.6 4.4 7.8 22.2 10.5 29 4.8 11.8 13.9 22.9 17.6 35 4.6 15.5 0.6 37.8 0.6 54-7.4-5.4-13.5-13.5-20-20-27-27-50.3-61.3-59-99zm43 0v45h-1c-7.7-13.2-15-29.8-17-45zm141 0v133h-96c-8 0-28.3 3.6-34.3-2.4-3.8-4-2.7-10.6-2.7-15.6v-37c5.7 2.6 9.7 8.2 16 9.6 13.9 3.1 16.7-11.1 14.5-21.6-4.9-23.3-20-44-28.5-66zm137 0c-12 37.6-23.3 74.4-48.7 105.3-6.8 8.3-15 23-25.3 27-4.4 1.6-10.3 0.7-15 0.7h-29c-2.8 0-8 0.9-10-1.6-1.8-2.3-1-6.7-1-9.4v-122zm145 0v94l-51 3c-2.8-2.7-11.4-1.2-8.2 3.5 2.3 3.2 9.7 2.6 13.2 3.1 14.8 1.9 31.2-2.4 46-3.6v23c0 2.6 0.7 7.1-1.6 9-5 3.9-21.2 1-27.4 1h-74c-5.7 0-25.3 3-29-1.6-1.8-2.3-1-6.7-1-9.4v-122zm141 0v123l-1.6 9-9.4 1h-122v-34c16.5-0.3 32.8-2.9 49-5.4 8-1.3 14.6 0.6 20-6.6l-25 2.7-44 3.3v-93zm141 0v123l-1.6 9-9.4 1h-122v-133zm141 0v93c0 9.8 3.7 28.9-0.6 37.7-2.6 5.3-24 2.3-29.4 2.3h-77c-5.2 0-22.5 2.7-26-1.6-1.8-2.3-1-6.7-1-9.4v-122zm64 0l26 1c-8.1 1-31.3 1.5-31.7 13-0.3 13.1 17 16.9 26.7 18.4 21.8 3.4 46-10.8 52-32.4h4v122c0 2.7 0.8 7.1-1 9.4-3.5 4.4-20.8 1.6-26 1.6h-77c-5.4 0-26.8 3-29.4-2.3-4.3-8.8-0.6-27.9-0.6-37.7v-93zm218 0v93c0 9.8 3.7 28.9-0.6 37.7-2.6 5.2-23.1 2.3-28.4 2.3h-78c-5.2 0-22.5 2.7-26-1.6-1.8-2.3-1-6.7-1-9.4v-122zm140 0v133h-123l-9-1.6-1-9.4v-122zm51 0c-3.6 26.9-18.7 53.2-14.7 81 0.5 3.6 3.1 24.9 6.7 24.9 5.7 0 1.6-19.6 1.1-22.9-4.9-29.5 8.7-54.6 12.9-83h84v133h-132v-133zm124 0v133c-5.1 0-21.6 2.7-25-1.6-1.8-2.3-1-6.7-1-9.4v-122z"/>
	<path id="Layer" class="s2" d="m1496 624l-2 2v-2zm-1027 3l1 1zm364 0l1 1zm-273.3 1.3l0.6 0.4zm-27.6 1.6l1 1zm1342 0l1 1zm-1307 14h-1l-1-4z"/>
	<path id="Layer" class="s1" d="m565 642c0 18-5.5 56.9 22 57 0-18.7-10.9-42.1-22-57zm274 34v78h-67c5.8-16.7 26.9-29.6 37.1-44 13.5-19.1 21.5-46 28.9-68z"/>
	<path id="Layer" class="s2" d="m1525 642l1 1z"/>
	<path id="Layer" class="s3" d="m537 646l1 1z"/>
	<path id="Layer" class="s1" d="m1495 648h-7v-2z"/>
	<path id="Layer" class="s2" d="m477 650l1 1zm1029 1l1 1zm-965 4l1 1zm5.3 11.7l0.4 0.6zm273.6 0.4l1 1zm-273 1l1 1zm-60 1l1 1zm331 2l1 1zm-2.6 6.6l0.3 0.7zm-323.3 0.3l1 1zm1370.6 0.4l0.7 0.3zm-1278.7 0.7l1 1zm-29 4l1 1zm1306.7 3.3l0.7 0.3zm-1274.7 0.7l1 1z"/>
	<path id="Layer" class="s0" d="m810.3 687.7l0.4 0.6z"/>
	<path id="Layer" class="s2" d="m811.3 687.7l0.4 0.6zm-1.4 1.4l1 1zm-250 1l1 1zm-132 5l1 1zm-5.6 2.6l0.3 0.7zm142.7-0.7l1 1zm-150.4 3.4l0.7 0.3zm-10.7 3.7l1 1zm108 2l1 1z"/>
	<path id="Layer" class="s3" d="m395 708l1 1z"/>
	<path id="Layer" class="s2" d="m1863 709l1 1zm1.3 4.7l0.4 0.6zm-844.4 2.4l1 1zm-76.3 7.3l0.7 0.3zm-394.7 21.7l1 1zm12 0l1 1z"/>
	<path id="Layer" class="s1" d="m99 761h25l9.4 1 1.6 9v24 99h-133v-133zm43 34v-24l1.6-9 9.4-1h25 97v133h-133zm141 0v-24l1.6-9 9.4-1h25 97v46c-17.5 2.2-37.3 1.7-53 10v1l17-2 36-3v81h-133zm274-34v133h-133v-82c19.8-2.6 37.9-11.6 57-16.8 8.2-2.3 18.6-2 24-9.2-27.3 0-54.8 13.2-81 20v-45zm141 0v84l-44 9c0-9.3-0.7-19.7-5.4-28-15.9-28.2-55.5-36-71.6-65zm8 21l1.6-20 12.4-1h34l-13.8 31-2.2 25-1 11.4-9 2.9-22 8.7zm57.5 67c-2.2-9.6-11.4-11.8-14.9-19.4-1.9-4.1-0.6-11.1-0.6-15.6 0-15.1 1.2-43.7 17-52 5.6-2.9 15.8-1 22-1h52v133h-74c2.1-15.7 1.9-29.7-1.5-45zm83.5-52v-25c0-2.7-0.8-7.1 1-9.4 3.5-4.4 20.8-1.6 26-1.6h77c5.3 0 25.8-2.9 28.4 2.3 4.3 8.8 0.6 27.9 0.6 37.7v93h-133zm238-36h25l9.4 1 1.6 9v24 99h-133v-133zm143 0h24l9 1.6 1 19.4v51c-24.9 6.3-8.4 44.5-5 61h-128v-133zm41 21c0-4.7-2-15.6 1-19.4 3.7-4.6 23.3-1.6 29-1.6h77c5.2 0 22.5-2.8 26 1.6 4.1 5.2 1 22.8 1 29.4v82c-9.1-0.5-17.7-4.7-27-4.7-6.4 0-15 4.9-21 2.4-28.8-12-52.9-37.3-86-38.7zm201 112c-12.5 0-25.9 2.2-37-4.4-5.7-3.4-18.6-7.2-22-12.8-2.6-4.4-1-12.9-1-17.8v-42-41c0-3.5-1.5-11.5 1.6-14 5-3.9 21.2-1 27.4-1h75c5.7 0 25.3-3 29 1.6 1.8 2.3 1 6.7 1 9.4v25 97zm81-97v-25c0-2.7-0.8-7.1 1-9.4 3.5-4.3 20.8-1.6 26-1.6h77c5.4 0 26.8-3 29.4 2.3 4.3 8.8 0.6 27.9 0.6 37.7v93h-134zm141-2v-24l1.6-9 9.4-1h25 97v133h-133zm238-34h25l9.4 1 1.6 9v24 99h-132v-133zm44 36v-25c0-2.7-0.8-7.1 1-9.4 3.4-4.3 19.9-1.6 25-1.6v133h-26zm-1379-4.6c13.8 11.4 36.2 19.2 44.8 35.6 4.5 8.7 4.2 18.5 4.2 28-13.6 2.8-6.5 26.4-8 38h-71v-131c11.1 8.2 19.3 20.5 30 29.4z"/>
	<path id="Layer" class="s3" d="m743 781l1 1zm-250 10l1 1z"/>
	<path id="Layer" class="s2" d="m607 791l1 1zm-121.7 1.7l0.4 0.6zm255.3-0.3l0.7 0.3zm-261.7 1.7l1 1zm-3 1l1 1zm-3 1l1 1zm-2.3 1.3l0.6 0.4zm148.4 1.6l1 1zm120 8l1 1zm-305.4 2.4l0.7 0.3zm202.3 2.7l1 1zm-235 1l1 1zm-31.3 5.3l0.7 0.3zm268.3 6.7l1 1zm116 9l1 1zm526 1l1 1zm-549.7 1.7l0.4 0.6zm-86.7 0.7l0.7 0.3zm643 0l0.6 0.4z"/>
	<path id="Layer" class="s1" d="m721 881.7c-3.2 0.9-10.3 4.3-13.4 2.2-3.4-2.3-1.6-13.2-1.6-16.9 0-5.2-1.7-13.8 0.6-18.6 4-8.4 23.5-10.5 31.4-10.4 8.2 0.1 24 12.9 13 20 2.6 14.2-19.6 20.7-30 23.7z"/>
	<path id="Layer" class="s2" d="m1289 838l1 1z"/>
	<path id="Layer" class="s1" d="m1269 855c0-3.7-1.4-11.3 1.6-14.1 6.5-5.8 21.3 3.5 27.4 6.3 17.2 7.9 33.1 17.2 49 27.4 8.4 5.4 19 11.3 25 19.4h-103z"/>
	<path id="Layer" class="s2" d="m1292 839l1 1zm-28 3l1 1zm-553.3 2.3l0.6 0.4zm595 0l0.7 0.3z"/>
	<path id="Layer" class="s1" d="m1262 845v31h-1c-2.6-8.7-9.3-26 1-31z"/>
	<path id="Layer" class="s2" d="m753.3 846.7l0.4 0.6zm-53 2l0.3 0.7zm-8.3 2.3l1 1z"/>
	<path id="Layer" class="s1" d="m698 851v35c-24.2 1-43.3 0.7-54-25 18.1 1.9 36.4-7.6 54-10z"/>
	<path id="Layer" class="s2" d="m685.7 853.3l0.6 0.4zm-7.3 1.3l0.3 0.7zm-25.6 4.6l0.6 0.4zm597.4 0.6l1 1zm94 5l1 1zm-93 1l1 1z"/>
	<path id="Layer" class="s1" d="m719 888.1c14.9-3.7 25.4-12.4 39-18.1 0 6.2 1.4 17.3-3 22.4-2.5 2.9-9.5 1.6-13 1.6h-36c1.5-5 8.5-4.8 13-5.9z"/>
	<path id="Layer" class="s2" d="m1252.7 874.3l0.6 0.4zm-494 1l0.7 0.3z"/>
	<path id="Layer" class="s1" d="m1402 881.6c2.1 3 1 8.9 1 12.4l-19-0.9-22-16.1v-1c9.5-1.8 33.4-3.6 40 5.6z"/>
	<path id="Layer" class="s2" d="m1402 875l1 1zm-149 2l1 1zm156 0l1 1zm-672.7 4.7l0.4 0.6zm517.6-0.6l1 1zm163 0l1 1z"/>
	<path id="Layer" class="s1" d="m698 892l-14 2h-37v-12c18 8.5 30.7 12.6 51 10z"/>
	<path id="Layer" class="s2" d="m659 882l1 1zm760 0l1 1zm2 1l2 2z"/>
	<path id="Layer" class="s0" d="m1422 883l1 1z"/>
	<path id="Layer" class="s2" d="m1255.3 884.7l0.4 0.6z"/>
	<path id="Layer" class="s1" d="m1427 894h-17v-9z"/>
	<path id="Layer" class="s3" d="m757 888l1 1z"/>
	<path id="Layer" class="s2" d="m1432 889l1 1zm-728.3 1.3l0.6 0.4zm732.4 1.6l1 1zm10 5l1 1zm7 5l1 1z"/>
	<path id="Layer" fill-rule="evenodd" class="s1" d="m135 903v122l-1 9.4-9 1.6h-123v-133zm140 0v133h-122l-9.4-1-1.6-9v-123zm141 0v122c0 2.7 0.8 7.1-1 9.4-3.5 4.3-20.8 1.6-26 1.6h-77c-5.3 0-25.8 2.9-28.4-2.3-4.3-8.8-0.6-27.9-0.6-37.7v-93zm141 0v133h-122l-9.4-1-1.6-9v-123zm79 0c0 14.5-0.7 31.2 4.4 45 1.9 5.3 7.1 8.3 9 13.3 4.1 10.6 2.7 20.6 10.2 30.7 5.3 7.1 13.1 13.9 21.4 17 4.1 1.6 13.2 1.3 16 4.7 3.4 4.3 1 17 1 22.3h-122l-9.4-1-1.6-9v-123zm62 0v28c-21.6-0.4-41.9-4.6-49-28zm141 0v133h-93c-9.8 0-28.9 3.7-37.7-0.6-4-2-3-15.6-2-19.3 1.4-4.9 9.6-5.1 13.7-6.4 8.3-2.6 16.7-8.7 22.5-15 9.3-10 5.1-20.8 7.8-32.5 1.2-5.3 6.6-9.2 8.7-14.2 5.4-12.9 7.3-31.6 3-45zm-88 0c-1.5 22.7-26.9 28-45 28v-28zm229 0v93c0 9.8 3.7 28.9-0.6 37.7-2.6 5.2-23.1 2.3-28.4 2.3h-77c-5.2 0-22.5 2.7-26-1.6-1.8-2.3-1-6.7-1-9.4v-122zm141 0v123l-1.6 9-9.4 1h-122v-133zm100 0c9.6 0 28.1-3.6 36.7 0.6 6.3 3.1 4.3 22.5 4.3 28.4v77c0 5.2 2.8 22.5-1.6 26-2.3 1.8-6.7 1-9.4 1h-122v-133zm142 0c15 0 31 0.1 39 16 2.4 4.9 1 12.7 1 18v84c0 3.5 1.5 11.5-1.6 14-2.6 2-8.3 1-11.4 1h-63c-3.7 0-10.2 1.2-13.4-1-7.3-5.1-11.1-23-14.4-31-8.7-20.8-15.9-42.4-22.2-64-3.7-12.4-8-24-8-37zm40 0v5l-7-5zm41 0.6c20.3 6.5 42.3 29.7 57 44.4 5.9 5.9 23.3 19.1 23.6 28 0.1 4.4-3.7 7.5-6.6 10.2-7 6.5-13.2 14.3-21 19.8-20.8-22.6-41.6-45.1-63.2-67.1-11.6-11.9-23.8-18.2-23.8-35.9 10.2 0 24.3-2.5 34 0.6zm100-0.6v122c0 2.7 0.8 7.1-1 9.4-3.3 4.2-19 1.6-24 1.6-1.5-7-6.2-12.2-10.7-17.4-2.3-2.6-6.4-5.8-5.5-9.6 1.5-7.5 16.5-18.3 22.2-23.4 2.5-2.2 8.5-6.2 8.3-10-0.3-6.1-12.3-15.3-16.1-19.6-11.9-13.1-24.9-25-38.6-36-6.9-5.6-16-10.2-21.6-17zm141 0v93c0 9.8 3.7 28.9-0.6 37.7-2.6 5.3-24 2.3-29.4 2.3h-77c-5.2 0-22.5 2.7-26-1.6-1.8-2.3-1-6.7-1-9.4v-122zm140 0v133h-122l-9.4-1-1.6-9v-123zm141 0v123l-1.6 9-9.4 1h-121v-133zm34 0v133h-26v-133z"/>
	<path id="Layer" class="s2" d="m751 906l1 1zm710 1l1 1zm-717 10l1 1z"/>
	<path id="Layer" class="s1" d="m753.8 935c-5.1 24.1-23.4 35.9-47.8 36v-33c20.2 0 34.8-4.8 48-21 2.2 5.3 1 12.5-0.2 18zm-55.8 3v33c-14.6-0.3-38.3-8.9-46.2-22-4.9-8.1-5.8-19.8-5.8-29 16 14.6 30.5 18 52 18z"/>
	<path id="Layer" class="s0" d="m1322.8 944c14.7-26.8 40.4-26.1 60-5.4 6.1 6.5 10.9 13.9 13.5 22.4 3.2 10.3 3.2 21.8-3.1 31-10.9 15.7-37.2 18.4-54.2 13.1-7.7-2.4-17.4-7.2-18-16.1-11.5-8.5-3.7-35 1.8-45z"/>
	<path id="Layer" class="s2" d="m1265 925l1 1z"/>
	<path id="Layer" class="s1" d="m1438 952c14.9 14.9 28.4 31 43 46 10.9 11.1 24 21.9 29 37-8 2.4-17.7 1-26 1h-49c-5 0-20.7 2.5-24-1.6-4-5.1-1-22-1-28.4v-79c11 4.6 19.7 16.7 28 25z"/>
	<path id="Layer" class="s2" d="m682.3 930.7l0.4 0.6z"/>
	<path id="Layer" class="s1" d="m1384.8 992.9c-13.1 14.1-47.7 12.8-57-4.9-11.5-22 0.9-64.2 31.2-57.6 11.8 2.5 19.6 13.4 26 22.6-8.3-3.7-15.2-10.9-24-13.4-43.8-12.4-36.4 74 6 55.9 5.7-2.5 9.8-7 13.9-11.5 5.1-5.6 7.1-11.6 8.1-19h1c1.3 9.9 2.2 19.9-5.2 27.9z"/>
	<path id="Layer" class="s2" d="m1494 933l1 1zm-770.7 2.7l0.4 0.6zm30.6-0.6l1 1zm606 5l1 1z"/>
	<path id="Layer" class="s1" d="m1270 974h-1v-30c7.7 10.3 5.5 19.3 1 30z"/>
	<path id="Layer" class="s2" d="m1271 944l1 1zm64 3l1 1zm-694 1l1 1zm741 0l1 1zm2 3l1 1zm-636 1l1 1zm585 4l1 1zm55 4l1 1zm-112 1l1 1z"/>
	<path id="Layer" class="s1" d="m1388.3 962.7l0.4 0.6z"/>
	<path id="Layer" class="s2" d="m1390.3 965.7l0.4 0.6zm-117 1l0.3 0.7z"/>
	<path id="Layer" class="s1" d="m677 974.1l21 1.9v30c-20.6-2.7-36.3-17.9-38-39zm29 31.9c0-6.2-3.1-24.7 1.6-29.1 3.2-3.1 9.4-1.6 13.4-2.2 6.3-0.9 12.5-3.6 18-6.7 9.2 22-14.5 36.5-33 38z"/>
	<path id="Layer" class="s2" d="m733 970l1 1z"/>
	<path id="Layer" class="s1" d="m1288.1 996l16.9 39c-5.3 1.6-26.1 3.9-30-0.6-3.2-3.7-2.9-12.8-3-17.4-0.3-16.5 3.6-30 6-46z"/>
	<path id="Layer" class="s2" d="m1525.3 974.7l0.4 0.6zm-256.7 4.7l0.7 0.3zm64 0l0.6 0.4zm-592 2l0.7 0.3zm542.7 0.3l0.3 0.7zm-543.3 2.3l1 1zm595 0l1 1zm-679 2l1 1zm610.6 0.4l0.7 0.3zm203.3-0.3l1 1zm-813 2l1 1zm629 1l1 1zm34 0l1 1zm47.7 5.3l0.7 0.3zm-79 2l0.6 0.4zm99.3-0.4l1 1zm92 1l1 1zm-215 1l1 1zm25.4 2.7l0.3 0.7zm57 1l0.4 0.6zm-615.4 0.4l1 1z"/>
	<path id="Layer" class="s3" d="m1292 1005l1 1z"/>
	<path id="Layer" class="s2" d="m724 1007l1 1zm570.3 2.7l0.4 0.6zm-29.4 12.4l1 1zm36.4 4.6l0.3 0.7zm208.7 6.3l1 1zm-204.7 3.7l0.4 0.6zm-36.4 2.4v2l-2-2z"/>
	<path id="Layer" class="s1" d="m135 1043v133h-133v-133zm140 0v133h-133v-133zm141 0v133h-133v-133zm141 0v88l1 45h-134v-133zm141 0v133h-8c0-23.8-6.7-48.8-17.2-70-1.6-3.2-9.7-25.1-14.1-19.6-4.4 5.4 5.8 17.8 8 22.6 9.3 21.1 14.5 44 16.3 67h-118v-133zm141 0v133h-133v-133zm141 0v133h-133v-133zm141 0v133h-133v-133zm141 0v133h-134l1-45v-88zm45.6 1c4.9 3.2 7 13 9.8 18 8.9 15.9 16.8 32.4 26.3 48 2.6 4.2 11.7 14.8 10 19.9-2.2 6.8-19.3 14.3-25.7 16.1-15.7-23.2-31.7-47.9-41.9-74-3.8-9.6-8.3-18.6-9.1-29 7.6 0 24.1-3.1 30.6 1zm95.4-1v77c0 5.6 2.8 22-1.6 25.9-12.4 11.2-27.1-3.3-34.3-11.9-15.3-18.3-26.7-42.7-37.4-64-4.3-8.6-10.5-17.6-12.7-27zm104 0c-4.5 10.5-16.2 19.7-24 28-15.9 17.1-30.5 35.5-47 52-7.1 7.1-15.8 16.6-26 19v-99zm9 0.6c7.7-2.9 19.8-0.6 28-0.6v65l-49-40c2-7 14-21.8 21-24.4zm169-0.6v133h-134v-31h24l-23.3-29-0.7-23v-50zm7 36v-25l1-9.4 9-1.6h24 99v133h-133zm274-36v88l1 45h-133v-133zm34 0v133h-26v-133z"/>
	<path id="Layer" class="s2" d="m1311 1048l1 1z"/>
	<path id="Layer" class="s1" d="m1280.2 1077c8 18 17.7 35.7 28.8 52 3.8 5.6 9.9 20.9 17 22.3 3.3 0.7 7.3-2.5 10-4 7.5-4.3 15-10.2 23-13.3 9.7 20.5 24.1 21.6 44 17v25h-134v-126c5.3 7.9 7.3 18.3 11.2 27z"/>
	<path id="Layer" class="s2" d="m1312 1050l1 1zm-36.7 13.7l0.4 0.6zm221.6 5.4l1 1z"/>
	<path id="Layer" class="s1" d="m1490.1 1073c4.5-0.4 10.6 6.4 13.9 9 11.7 9.3 32.7 23.2 38.9 37 1.8 4 2.8 16.6 0.1 20.3-2.8 3.7-7.9 3.2-8.7 8.7-1.3 8.9 6.4 19.2 7.7 28l-23-0.2-13-3.7-13 3.8-63 0.1-8-31c7.8 6 11.1 16.8 19.1 22.6 7.6 5.5 8.5-7.1 7.5-11.6-0.7-3-1.8-6-2.6-9 12.3 0 18.9 9.3 28 16.3 2.9 2.3 7.1 6.9 11 6.9 3.9 0.1 7.7-4.5 11-6.2l-8-22 3-5c13.8 2.9 5.3-12.9 3-19 6.3-2.9 17.6 3.4 22.6-1.6 3.9-3.9-3-10.1-5.6-12.6-9.4-8.9-20.3-13.8-31-20.8 1.9-3.2 6-9.6 10.1-10z"/>
	<path id="Layer" class="s2" d="m1281 1079l1 1zm50 8l1 1zm-671.3 8.3l0.6 0.4zm675.4-0.4l1 1zm-43 5l1 1zm47 1l1 1zm-676 1l1 1zm837.6 1.4l0.7 0.3zm-836.7 0.7l1 1zm839 1l3 2z"/>
	<path id="Layer" class="s1" d="m1476 1108l1 1z"/>
	<path id="Layer" class="s2" d="m1345 1112l1 1zm-46 1l1 1zm193.7 3.3l0.6 0.4zm-821.3 4.3l0.3 0.7z"/>
	<path id="Layer" class="s1" d="m1564 1140v1l-13-1v-12z"/>
	<path id="Layer" class="s2" d="m1309 1129l1 1zm2 3l1 1zm187 4l1 1zm62 0l1 1z"/>
	<path id="Layer" class="s3" d="m1559 1141l1 1z"/>
	<path id="Layer" class="s2" d="m1549.3 1144.7l0.4 0.6z"/>
	<path id="Layer" class="s1" d="m1422 1176h-12c0-8.4-3-23.6 3-30z"/>
	<path id="Layer" class="s2" d="m1545 1146l1 1zm-866 1l1 1zm642 0l1 1zm94 2l1 1z"/>
	<path id="Layer" class="s1" d="m1544 1154h-1v-5z"/>
	<path id="Layer" class="s2" d="m1329.7 1150.3l0.6 0.4zm72 0l0.7 0.3zm69.3 1.7l1 1zm-54.7 1.7l0.4 0.6z"/>
	<path id="Layer" class="s3" d="m1471 1153l1 1z"/>
	<path id="Layer" class="s2" d="m1535.3 1153.7l0.4 0.6zm-854 3l0.3 0.7zm854.7-0.7l1 1zm-117.7 4.7l0.3 0.6zm1.7 6.4l1 1zm1.3 2.6l0.4 0.7zm121.7 7.3l1 1zm-39 1l1 1zm20.3 1.7l0.3 0.7zm20 0l0.4 0.6zm-50.4 0.4l1 1zm-68.6 1.6l0.3 0.7zm68.3 1.6l0.7 0.4z"/>
	<path id="Layer" fill-rule="evenodd" class="s1" d="m135 1184v123l-1.6 9-9.4 1h-122v-133zm140 0v133h-133v-133zm141 0v133h-133v-133zm141 0v133h-133v-133zm126 0c-0.3 13.4-2.4 30.2-9 42-7.6-2.8-15-8.2-23-3-10 6.6-8.1 25.6 6 24.6 7.8-0.6 12.4-7.5 19-10.6 16.7 23.4 20.7 66.8-14 78.8-9.5 3.2-22 1.2-32 1.2h-65v-133zm15 0v133h-27v-1c20.4-14.5 32-39.6 22.5-64-2.8-7.3-12.3-14-13.7-21.2-0.8-4.2 4-10.7 5.3-14.8 3.1-9.9 4.8-21.6 4.9-32zm141 0v133h-133v-133zm141 0v133h-133v-133zm141 0v133h-133v-133zm141 0v133h-133v-133zm141 0v133h-134v-133zm22.6 1c3.7 2.4 4.9 8.5 7.1 12 6.5 10.5 14.9 27 26 33.1 9.1 4.9 4.2-19 9.6-21.5 9-4.2 14.7 6.6 22.7 6.9 16.3 0.7 8.5-22.8 10-31.5 13.6 0 33.9 3 42 16.3 3 4.9 1 15.1 1 20.7v83c0 3.2 1.2 9.7-1.6 12-2.3 1.8-6.7 1-9.4 1h-123v-133c4.4 0 11.8-1.4 15.6 1zm67.4-1c0 4.7 2.5 20.4-2.3 22.9-4.2 2.1-10-5-13.7-6.4-11-4.4-19.8 7.8-20 17.5-9.8-7.2-18.7-22.4-22-34zm51 0v7l-12-6v-1zm141 0v133h-134v-115c9.4-1.5 4-11.8 2-18zm140 0v133h-123l-9-1.6-1-9.4v-122zm141 0v123l-0.8 9-9.2 1h-122v-69c25.1 7.2 46.9 29.5 69 42.8 5.7 3.4 18.2 14.3 25 13 11-2 0.3-20.2-1.8-25.8-7.6-20.3-13.1-40.9-23.9-60-3.1-5.5-5.9-14.7-11.4-18.1-6.2-3.9-13.7 1.1-18.9 4.3-11.5 7.3-25.3 16.2-38 20.8v-41zm34 0v96c0 8.3 3.6 28.4-2.4 34.7-4.6 4.7-17.5 2.3-23.6 2.3v-133z"/>
	<path id="Layer" class="s2" d="m1538 1189l1 1zm5 2l1 1zm4.7 3.3l0.6 0.4zm-71.3 6.3l0.3 0.7z"/>
	<path id="Layer" class="s3" d="m681 1203l1 1z"/>
	<path id="Layer" class="s2" d="m1878 1206l1 1z"/>
	<path id="Layer" class="s1" d="m1855 1250c-4.5-2.7-20.7-8.1-20.7-14 0-5 7.2-7.6 10.7-9.9 9.2-5.9 17.8-12.4 28-16.6 3.7-1.5 9-3.5 12.6-0.7 6.3 4.7 9.6 14.4 12.8 21.2 9.5 19.6 15.6 41.4 22.6 62-23.8-8.5-44.3-29.1-66-42z"/>
	<path id="Layer" class="s2" d="m1487 1208l1 1zm386 0l1 1zm-1194 3l1 1zm1185 2l1 1zm-406.3 1.3l0.6 0.4zm-782.6 10.6l1 1zm-21 3l1 1z"/>
	<path id="Layer" class="s1" d="m655.1 1229c-8.5 5.1 2.6 13.5 9.9 9 9.7-6.1-3.9-12.5-9.9-9z"/>
	<path id="Layer" class="s2" d="m1901.3 1235.7l0.4 0.6zm-65.4 4.4l1 1zm2 1l1 1zm-1158 1l1 1zm1225 2l1 1zm-1243 1l1 1zm20 0l1 1zm1165.4 0.6l0.3 0.7zm7.7 4.3l1 1zm53 2l1 1zm1 5l1 1zm1.3 2.7l0.4 0.6zm1 3l0.3 0.7zm0.7 2.3l1 1zm-32 1l1 1zm-1190 2l1 1zm1223 0l1 1zm1.3 2.7l0.3 0.7zm-1224.3 2.3l1 1zm1225 0l1 1zm-22 2l1 1zm22.7 1.3l0.6 0.4zm-8.6 8.6l1 1zm-1219 1l1 1zm-3 6l1 1zm-6 10l1 1zm1315 17l1 1zm-1361 3l1 1zm20.3 1.7l0.3 0.7zm1337.7-0.7l1 1z"/>
	<path id="Layer" fill-rule="evenodd" class="s1" d="m95 1325c9.8 0 28.9-3.7 37.7 0.6 5.2 2.6 2.3 23.1 2.3 28.4v77c0 5.2 2.7 22.5-1.6 26-2.3 1.8-6.7 1-9.4 1h-122v-133zm180 0v56c0 8.2 1.8 19-0.6 26.9-2.6 8.7-13.6 17.5-18.7 25.1-4.1 6.1-10.1 21.5-16.9 24.4-7.5 3.1-20.7 0.6-28.8 0.6h-68v-133zm141 0v16c-30.7 2.4-61.2 9.6-88 25.5-10.4 6.1-20.5 12.8-29.9 20.4-5 4-9.2 9.4-15.1 12.1v-74zm141 0v55c-43.4-24.1-82.7-39-133-39v-16zm141 0v133h-52l-21.8-0.6-7.8-10.4-15.4-23-23-26-12.3-12.2-0.7-18.8v-42zm141 0v133h-123l-9-1.6-1-9.4v-122zm141 0v122l-1 9.4-9 1.6h-123v-133zm141 0v133h-133v-133zm141 0v133h-39c1.2-5.2 6.1-13.7 3-18.8-2.2-3.4-6.3-1.9-8.8 0.2-5.3 4.6-6 12.1-7.2 18.6h-81v-133zm141 0v93c0 9.8 3.7 28.9-0.6 37.7-2.6 5.3-24 2.3-29.4 2.3h-77c-5.2 0-22.5 2.8-26-1.6-1.8-2.3-1-6.7-1-9.4v-122zm129 0c2.9 0 8-0.9 10.4 1 3.1 2.5 1.6 10.5 1.6 14v96c0 4.9 2.1 16.4-1 20.4-3.5 4.4-20.8 1.6-26 1.6h-77c-5.7 0-25.3 3-29-1.6-1.8-2.3-1-6.7-1-9.4v-122zm153 0v122l-1 9.4-9 1.6h-124v-133zm47 133c-9.8 0-28.9 3.7-37.7-0.6-5.2-2.6-2.3-23.1-2.3-28.4v-77c0-5.2-2.8-22.5 1.6-26 2.3-1.8 6.7-1 9.4-1h122v133zm234-133l-0.6 38-10.4 21-15.3 40-5.9 24-3.1 9.4-27.7 0.6h-69v-133zm34 40v93h-26v-64l0.7-30 24.3-39c4.4 10.5 1 28.6 1 40zm-11-40l-15 22v-22zm-1465 44.2c9.1 4.3 26.9 11.9 32 21 2.8 5 1 14.2 1 19.8v48h-133v-111c35 0 68.4 7.2 100 22.2z"/>
	<path id="Layer" class="s2" d="m399 1348l1 1z"/>
	<path id="Layer" class="s1" d="m319 1458h-25c-2.7 0-7.1 0.8-9.4-1-3.3-2.7-1.6-12.2-1.6-16 0-16.4-2.8-29.4 10.2-41.2 33.3-30.2 76.9-51.8 122.8-51.8v110z"/>
	<path id="Layer" fill-rule="evenodd" class="s2" d="m1973.3 1349.7l0.4 0.6zm-1599.7 3.7l0.7 0.3zm1596.3 0.7l1 1zm-1616 5l1 1zm1613 1l1 1zm-1617 1l1 1zm172 0l1 1zm-182 5l1 1zm198 3l1 1zm-210 3l1 1zm1632 2l1 1zm-2 3l-1 3z"/>
	<path id="Layer" class="s0" d="m1957 1378l1 1z"/>
	<path id="Layer" class="s2" d="m1956 1381l1 1z"/>
	<path id="Layer" class="s1" d="m1966 1405v53h-24c0-26.7 12.9-52.8 23-77z"/>
	<path id="Layer" class="s2" d="m562 1384h-2v-2zm1393-1l1 1zm-1391 3l1 1zm-260 3l1 1zm1645.3 8.7l0.4 0.6z"/>
	<path id="Layer" class="s1" d="m611 1458h-46v-60c18 10.4 40.2 40.2 46 60z"/>
	<path id="Layer" class="s2" d="m1947 1402l1 1zm-1669 3l1 1zm1666 4l1 1zm0 3l1 1zm-1669 6l1 1z"/>
	<path id="Layer" class="s1" d="m275 1458h-25c4.5-14.2 15.9-25.8 24-38 4.2 10 1 27.1 1 38z"/>
	<path id="Layer" class="s2" d="m1940.3 1423.7l0.4 0.6zm-1349.4 1.4l1 1zm-332 2l1 1zm-6 9l1 1zm1683 2l1 1zm-1685 1l1 1zm1684 3l1 1zm-1325 12l1 1zm600 11l1 1z"/>
	<path id="Layer" class="s1" d="m135 1466v133h-133v-133zm101 0c-5.3 13.6-11.7 26.8-15.4 41-8.1 30.8-8.6 60.5-8.6 92h-70v-133zm-3.6 33c2.3-7.9 6.4-27 13.2-32 5.8-4.1 22.4-1 29.4-1v133h-53c0-34.2 0.7-66.8 10.4-100zm183.6-33v117h-1c-13.8-17.9-33.4-8.2-45 7h-1c-1.9-3-3.8-6.1-6.4-8.7-11.4-11.1-25-0.5-33.5 8.7-2.3 2.5-4.3 6.9-7.5 8.4-9.4 4.3-28.3 0.6-38.6 0.6v-133zm141 0v133h-133v-133zm44 0c4 0 11.1-1.3 14.5 1 5.4 3.7 7.1 15.3 9.4 21 10.2 24.9 12.6 54.5 9.4 81-0.8 6.8-0.2 24.5-6 29-3.6 2.8-13 1-17.3 1h-46v-133zm97 0v133h-60c8.8-30.9 9.6-64.7 2.1-96-3.1-12.8-9-24.6-13.1-37zm141 0v133h-133v-133zm141 0v133h-133v-133zm95 0l2 12c-3.5 4.2 10.8 26.8 17 26.8 6 0 7.4-7.7 5.9-11.8-4.2-11.3-12.6-17.5-17.9-27h39v34l-0.6 14.8-16.4 13.6-30.2 32.6-12.8 26-5.4 11.4-19.6 0.6h-48v-133z"/>
	<path id="Layer" class="s2" d="m1079.7 1466.3l0.6 0.4z"/>
	<path id="Layer" fill-rule="evenodd" class="s1" d="m1212 1466v4l10-3.8 40-0.2v42c-10.7-1.9-21.3-6.7-32-9.1-16.7-3.9-36.9-4.7-54-2.6-17 2.1-31 10.1-47 14.7v-45zm94 1c-8.1 6.1-11.7 19.9-16 29l4 1c1.8 7.3 8.5 1.7 11.5-2 6.3-7.9 12.6-18.8 13.5-29h84v133h-59c-6.4 0-17.9 2.2-23.7-0.6-3.6-1.7-3.3-8.1-3.3-11.4-0.1-9.6-1.4-20.2-5.3-29-5.7-12.8-14.2-23.6-24.7-32.8-4.7-4.2-13.8-8-17-13.4-2.1-3.6-1-9.7-1-13.8v-32c10.7 0 27.2-3.1 37 1zm5 0h-3v-1zm233-1v133h-134v-133zm141 0v133h-134v-133zm140 0v133h-133v-133zm107 0c-5.9 46.7 7.7 88.2 17 133h-71v-1l8-4c-4.2-6.4-9.8-2.7-16-1-11.3 3-24.3 5-36 5v-132zm34 0v133c-11.9-0.4-13.8-21.6-16.1-31-8.5-34.7-10-66.5-9.9-102zm34 0v133h-26v-133z"/>
	<path id="Layer" class="s2" d="m1932.3 1468.7l0.4 0.6zm-720.4 0.4l1 1zm-977.6 1.6l0.3 0.7zm384 0l0.3 0.6zm681 5l0.4 0.7zm-678.4 1.3l1 1zm686 6l1 1zm-1078.6 2.7l0.3 0.7zm397.3 2.6l0.7 0.4zm454.3-0.4l1 1zm-451.6 8.7l0.3 0.7zm472.7 2.3l1 1zm192 0l1 1z"/>
	<path id="Layer" class="s3" d="m1193 1500l1 1z"/>
	<path id="Layer" class="s2" d="m1299 1500l1 1z"/>
	<path id="Layer" class="s1" d="m1154 1508.7c20.6-7 42.6-9.3 64-5.3 7.5 1.4 16.9 2.8 23 7.6-27.9-3.6-54.4-3.8-82 2.9-10.3 2.5-19.8 7.4-30 10.1 0.8-10 17-12.7 25-15.3z"/>
	<path id="Layer" class="s2" d="m1238 1501l1 1zm-1016 1l1 1zm408.3 0.7l0.4 0.6zm542 0l0.3 0.7zm69.3-0.4l0.7 0.4zm-81.7 0.7l1 1zm79 1l2 3z"/>
	<path id="Layer" class="s1" d="m1246 1507l1 1z"/>
	<path id="Layer" class="s2" d="m220.7 1508.3l0.6 0.4zm923 0l0.7 0.3zm9 0l0.7 0.4z"/>
	<path id="Layer" class="s1" d="m1252 1509v1l-4-1v-1z"/>
	<path id="Layer" fill-rule="evenodd" class="s2" d="m1259.7 1508.3l0.6 0.4zm-122.6 1.6l-3 4z"/>
	<path id="Layer" class="s1" d="m1253 1510l1 1z"/>
	<path id="Layer" class="s2" d="m1183.3 1511.7l0.4 0.6zm68.6-0.6l1 1z"/>
	<path id="Layer" class="s1" d="m1262 1514v1l-7-3v-1z"/>
	<path id="Layer" class="s2" d="m220 1512l1 1z"/>
	<path id="Layer" class="s1" d="m1129 1548c0-4.8-2-15.3 1-19.3 4.2-5.7 17.5-8 24-9.8 25.3-7.3 50-7.2 76-5.9 7.8 0.4 26.2 3.5 31 10.5 3 4.5 1 15.2 1 20.5v55h-133z"/>
	<path id="Layer" class="s2" d="m1242.7 1512.3l0.6 0.4zm3.7 0.3l0.3 0.7zm7.7-0.7l1 1zm-122 1l1 1zm124 0l1 1zm-119.3 1.3l0.6 0.4zm135.7 0.3l0.3 0.7z"/>
	<path id="Layer" class="s3" d="m1156 1517l1 1z"/>
	<path id="Layer" class="s2" d="m1264 1517l1 1z"/>
	<path id="Layer" class="s1" d="m1269 1518l12.4 12 22.6 27h1c-3.6-15.8-21.1-33.4-36-39z"/>
	<path id="Layer" class="s2" d="m1267 1519l1 1zm-143 2l1 1zm145 0l1 1z"/>
	<path id="Layer" class="s1" d="m1121 1524c-0.5 6.6-6 8.3-11 11.7-10.3 6.8-18.1 16.3-28 23.3 8.1-14.2 23.5-29.3 39-35z"/>
	<path id="Layer" class="s2" d="m1114.7 1526.3l0.6 0.4zm17 0l0.7 0.3zm-1.7 0.7l1 1zm-913.6 1.7l0.3 0.6zm911.7-0.7l1 1z"/>
	<path id="Layer" class="s1" d="m1310 1599h-41v-71c26.6 10.3 36.2 46.1 41 71z"/>
	<path id="Layer" class="s2" d="m1120 1532l1 1z"/>
	<path id="Layer" class="s1" d="m1121 1534v65h-56c6-24.2 31.6-57.4 56-65z"/>
	<path id="Layer" class="s3" d="m636 1544l1 1z"/>
	<path id="Layer" class="s2" d="m1299 1545l1 1zm3 4l1 1zm-9 1l1 1z"/>
	<path id="Layer" class="s1" d="m1305 1558l1 1z"/>
	<path id="Layer" class="s2" d="m1307 1558l1 1z"/>
	<path id="Layer" class="s0" d="m1044 1572l-9 4v1l4 5c-8.2 3.6-29.1-1.4-36-7l9-1-7-4v-3c7.8-4.3 32.9-2 39 5z"/>
	<path id="Layer" class="s2" d="m1940 1564l1 1zm-1727 3l1 1zm863.3 0.7l0.4 0.6z"/>
	<path id="Layer" class="s3" d="m1005 1568l1 1zm26 2l1 1z"/>
	<path id="Layer" class="s2" d="m1304 1572l1 1zm-903.3 1.3l0.6 0.4zm234 1l0.7 0.3zm399.3 0.7l1 1zm271 0l1 1zm-240 2l1 1zm241 0l1 1z"/>
	<path id="Layer" class="s1" d="m372 1599h40c-7.4-25.8-28.3-18.6-40 0z"/>
	<path id="Layer" class="s2" d="m386 1582l1 1zm677 0l1 1z"/>
	<path id="Layer" class="s1" d="m353.8 1585.7c4.1 3.2 6 8.7 8.2 13.3h-31c3.7-7.7 13.1-20.9 22.8-13.3z"/>
	<path id="Layer" class="s2" d="m1945.3 1584.7l0.4 0.6zm-886 8l0.3 0.7zm-698 4l0.3 0.6zm1518.7-0.6l1 1zm69 0l1 1zm-86 3l1 1zm11 0l1 1zm75.7 0.3l0.6 0.3zm-1736.3 1.4l0.3 0.6zm199.7-0.6l1 1zm-51 1l1 1zm266.3 1.6l0.4 0.7zm1213 0l0.3 0.7zm26.7-0.7l1 1zm-4 1l1 1zm-1544 1l1 1zm1542 0l1 1zm91 0l-2 2v-2z"/>
	<path id="Layer" fill-rule="evenodd" class="s1" d="m135 1607v133h-133v-133zm58 0c4.6 0 15.5-2 19.3 1 2.5 2.1 2.1 8 2.6 11 1.7 10.3 3.4 20.8 5.6 31 3.9 17.8 9.6 38.9 20.2 54 8.3 12 24.1 21.8 28.3 36h-127v-133zm82 0v121c-40-30.5-43.5-75.4-52-121zm44 0c-4.2 22.3-4.2 47.3 3.3 69 3 8.5 12.1 15.7 13.5 24 2.1 12.5-4.4 27.8-6.8 40h-46v-133zm40 0c-2.6 7.7-12.8 31.4-1.9 36.9 4.6 2.3 9.8-2.6 12.3-5.9 6.1-8 5.8-21.7 3.6-31h43c0 3.8 0.7 8.4-0.6 12-3.7 10.9-22.4 36.4 0.6 41 0 21.5 3.1 44.1-6.2 64-2.1 4.3-3.8 12.3-8.1 15-4.3 2.6-12.8 1-17.7 1h-44c0-13.6 7.5-27.5 5.7-41-1.3-9.3-11.2-16.4-14-26-6.2-22.3-4.9-43.2-4.7-66zm198 0v80c0 8.3 2.9 23.8-1.6 31-4.4 7-15.4 18.7-23.4 21.4-9.5 3.3-24 0.6-34 0.6h-74c0-10.8-3.1-27.9 4.7-36.7 6.9-7.6 20.6-6.6 29.3-11.3 16.7-9 26.2-28.8 31.7-46 2.2-6.6 5.9-15.4 1.6-22-8-11.8-20.3 1.7-27.3-4.6-3-2.6-4.5-6.1-8-8.2-9.7-6-20 0.3-30 0.8v-5zm8.6 112l19.2-24 35.5-52 11.4-25 5.6-10.4 17.7-0.6h43v133h-133zm60.4-112c-3.9 26.5-23.5 53-38.9 74-6.5 8.8-13.1 19.6-22.1 26v-100zm213 0v133h-133v-133zm141 0v133h-133v-133zm75 0c-5.7 45.6-20.6 98.9 23 132v1h-90v-62c11.7 1.5 37 8.8 44-3l-36-10 1-3h-9v-55zm66 0v133c-13.7 0-25-10.8-34-20.4-31-33.5-28.3-70.7-25-112.6zm89 0l-9 13c-4-2.2-8.2-5.8-13-6.2-10.9-0.8-15.9 11.4-16 20.2-25 3.9-15.8 28.7-5.4 42 15.8 20.2 38.6 29.2 61.4 39 11.5 4.9 29.7 12.3 34 25h-133v-133z"/>
	<path id="Layer" class="s2" d="m1229 1607l1 1z"/>
	<path id="Layer" fill-rule="evenodd" class="s1" d="m1197.7 1664.3c4.7-3.4 2.1-10.2 0-14.3-4.5-8.4-30.9-18-16.4-29.3 4.5-3.5 13.9-1.6 16.7 3.4 3.2 5.8 1.1 32.7 16 28.2 5.9-1.8 4.2-8.2 2.2-12.3-3.5-7.5-19.3-27.3-1.1-31.5 9.1-2.1 17.9 9.2 20 16.5 4.5 15.7-0.7 32.3 4.2 48 4.5 14.1 17.5 23.7 22 37 1.9 5.6 0.7 13.1 0.7 19-8.2-2.2-15.2-9.9-23-13.7-22-10.8-45.1-16.4-63-34.3-5.7-5.7-19-20.6-13.8-29.8 2-3.6 7.6-5.6 10.8-8.2 3.1 5.2 16.7 27.2 24.7 21.3zm113.3-57.3c0 30.3-8.9 59.1-11.8 89-1 10.5 4.7 20.2 4.1 29.9-0.2 3.9-9.7 8.8-13.2 9-6.4 0.3-19.9-19.3-20.9-24.9-1.9-10.7-0.2-23.1-0.2-34v-69zm92 0v133c-18.4 0-37.6 1.6-56-0.1-9-0.8-9.5-8.1-20-3.9 1.5-12.3-8.1-8-14.4-12.1-3.3-2.1-3.4-10.4-3.6-13.9-0.9-21.8 6-42.7 9.6-64 2.2-13.2 1.4-25.7 1.4-39zm141 0v133h-134v-133zm141 0v133h-134v-133zm49 0l20 1c-21 5-4.5 19.7 0 32 2.7 7.4 4 20.2 13 22.6 7.1 1.8 14.6-3.6 20-7.5 11.6-8.3 24.3-20.6 38-25.1v110h-133v-133zm91 0c0 4.1 1.3 10.8-1 14.5-2.5 3.8-8.3 6.3-12 8.8-8.6 6.1-17.2 12.2-26 18-4 2.7-8.9 6.6-14 5.2-9.1-2.6-8.6-17.5-12-24.5-2.4-5.1-6.2-9.2-7-15zm9 49c0-8-3.3-25.7 1-32.5 2.3-3.5 7.7-5.9 11-8.2 20.5-14.5 52.7-8.3 77-8.3 6.4 0 25.5-3.2 29.6 2.3 12.9 17.4 13.4 40.3 13.4 60.7v70h-132zm13-48l-13 8v-9zm119-1v8h-1l-3-8zm34 0v76h-1c-7.9-15.1-20.1-30.3-24.4-47-2.3-8.9-0.6-19.9-0.6-29zm-738 0v94h-1c-7.5-10.4-15.7-22.2-18.2-35-2.5-12.4 1.5-25.4-1.3-38-1.9-8.2-6.9-14.2-11.5-21z"/>
	<path id="Layer" class="s2" d="m1856 1608l1 1zm-1498 1l1 1zm1418 0l1 1zm-1322.3 1.3l0.6 0.4zm1312.7 0.3l0.3 0.7zm-710.3 1.3l-2 2v-2zm-431 1l1 1zm-188.3 1.3l0.6 0.4zm753.7 0.3l0.3 0.7zm765 0l0.4 0.6z"/>
	<path id="Layer" class="s1" d="m428 1621.1c2.6-9.3 22.9-7.6 26.5-0.1 2.8 5.7-3.9 9.3-7 13-6.4 7.6-19.8 27.8-11 37.5 5.6 6.1 12.4-0.9 16.2-5.5 8.1-9.7 15.2-27.2 12.3-40 30.9-8.7 12.9 31.8 5.1 45-11.5 19.7-27.6 17.5-46.1 25 0-24.1-2.4-51.4 4-74.9z"/>
	<path id="Layer" class="s2" d="m432 1616l1 1zm-2 1l1 1zm-13 1l1 1zm785 0l1 1zm-148.7 1.7l0.4 0.6zm-698.7 0.7l0.7 0.3zm267.6 0.4l0.4 0.6z"/>
	<path id="Layer" class="s1" d="m364 1630h-1v-9z"/>
	<path id="Layer" fill-rule="evenodd" class="s2" d="m1745 1622l1 1zm-692.7 1.7l0.4 0.6zm777.6 1.4l-1 2zm-1211 2l1 1zm1208 0l1 1zm-1609.6 2.6l0.3 0.7zm147.3-0.4l0.7 0.4zm1455.3 1.7l1 1zm-1412 1l1 1zm642.4 0.6l0.3 0.7z"/>
	<path id="Layer" class="s1" d="m456 1633l1 1z"/>
	<path id="Layer" class="s2" d="m1751 1633l1 1z"/>
	<path id="Layer" class="s1" d="m1212 1648h-1l-6-14c4.5 3.7 6.7 8.2 7 14z"/>
	<path id="Layer" class="s2" d="m1963 1634l1 1z"/>
	<path id="Layer" class="s1" d="m455 1635c-5.7 8.6-10.8 18.5-11 29 6.9-3.5 13.9-21.7 11-29z"/>
	<path id="Layer" class="s2" d="m1752 1635l1 1zm-443 1l1 1zm-259.7 1.7l0.4 0.6z"/>
	<path id="Layer" class="s1" d="m416 1650h-1v-11zm762-11c1.8 8.3 8.4 19.6 17 22-0.8-9.2-7.5-20.1-17-22z"/>
	<path id="Layer" class="s2" d="m1200 1639l1 1zm554.7 1.3l0.6 0.4zm-543.3 1.3l0.3 0.7zm-793.3 0.3l1 1zm755 0l1 1zm28 0l1 1zm-838.3 1.3l0.6 0.4zm1605 1l0.7 0.3zm-1550.7 0.7l1 1zm192 2l1 1zm1360 0l2 3zm-211.6 1.7l0.3 0.6zm-1277.3 0.3l1 1zm1289.6 4.4l0.7 0.3zm204.3 2.7h-1l-1-3zm-1522.6-1.3l0.3 0.6zm1320.3-0.3l0.7 0.3zm-12.7 0.7l1 1zm-1440.3 1.3l0.7 0.4zm158.6 0.3l0.4 0.7zm126.6-0.7l1 1zm591.3 0.7l0.4 0.6zm-39 1l0.3 0.7zm625.7-0.7l1 1zm-1558.7 1.7l0.4 0.6zm211.6-0.6l1 1zm1326 0l1 1zm214 0l1 1z"/>
	<path id="Layer" class="s1" d="m1984.1 1675l15.2 25 0.7 40h-26v-81z"/>
	<path id="Layer" class="s2" d="m1157 1660l1 1zm620 0l1 1zm-1329 1l1 1z"/>
	<path id="Layer" class="s1" d="m1054 1670h-1v-6z"/>
	<path id="Layer" class="s2" d="m1305 1668l1 1zm-319.7 1.7l0.4 0.6z"/>
	<path id="Layer" class="s3" d="m1013 1669l1 1z"/>
	<path id="Layer" class="s2" d="m1162 1669l1 1zm-935 2l1 1zm220 0l1 1z"/>
	<path id="Layer" fill-rule="evenodd" class="s1" d="m990 1674h-2v-2zm64-1c0 22.9 10.8 66.7 40 67v-1c-12.8-9.7-23.3-23.3-29.7-38-3.8-8.8-5.2-19.9-10.3-28z"/>
	<path id="Layer" class="s2" d="m1057 1673v2h-2v-2zm-31 2v2l-2-2zm-42 1l1 1z"/>
	<path id="Layer" class="s3" d="m1021 1680l1 1z"/>
	<path id="Layer" class="s4" d="m1057 1680l1 1z"/>
	<path id="Layer" class="s2" d="m326 1684l1 1zm919 2l1 1zm746 0l1 1zm-1759 1l1 1zm952 1l1 1zm-124 1l1 1zm-825.7 2.7l0.4 0.6zm223 0l0.3 0.7zm604 0l0.3 0.6zm-11 1l0.4 0.7zm199.6 0.3l1 1zm-801 1l1 1zm-3.3 1.4l0.7 0.3zm747.3-0.3l1 1zm-757.3 3.3l0.6 0.3zm137.4-0.3l1 1zm626 0l1 1zm-145.7 5.7l0.4 0.6zm157 0l0.3 0.7zm-968.3 2.3l1 1zm812 0l1 1zm211 0l1 1zm-848.7 2.7l0.3 0.7zm-80.3 0.3l1 1zm886.7 0.3l0.6 0.4zm-807.3 2.3l0.3 0.7zm654.7-0.7l1 1zm193 0l1 1zm-31 2l1 1zm-897 1l1 1zm901 0l1 1zm29 0l3 3zm-709 3l1 1zm745 0l1 1zm-966.7 1.7l0.4 0.6zm78 0l0.3 0.7zm832.7 0.3l1 1zm-833.7 1.7l0.3 0.6zm649.7 0.4l1 1z"/>
	<path id="Layer" class="s1" d="m1271 1721l13 18c-15.9 4.7-15-5.6-15-18z"/>
	<path id="Layer" class="s2" d="m1252 1723l1 1zm-842.3 1.3l0.6 0.4zm-77.3 2.3l0.3 0.7zm923.7-0.7l1 1z"/>
	<path id="Layer" class="s1" d="m557 1740h-14l13-13zm-141 0h-4l3-8z"/>
	<path id="Layer" fill-rule="evenodd" class="s2" d="m1092 1742v1l-4-1v-1zm9-10l1 1zm162 0l3 3zm-858 2l1 1zm-136.7 2.7l0.4 0.6zm1037.6 0.4l1 1zm-765 3l-1 2zm573.7 1.3l0.7 0.3zm150.3-0.3l2 2zm-736 1l1 1zm743 0l1 1zm28 0l1 1zm37.7 0.3l0.6 0.4zm-799.6 0.6l1 1zm769 0l1 1zm-213 1l1 1zm15.3 0.7l0.3 0.7zm188.7-0.7l1 1zm7 0l1 1zm-905.3 3.3l0.6 0.4z"/>
	<path id="Layer" class="s1" d="m135 1748v91l-1 43-45-1h-87v-133zm135 0c0 4.9-0.2 18.4-6.2 20.2-8.8 2.6-16.5-8.7-23.8 2.8-6.2 9.8 0 20-1.6 30-3 18.1-16.7 39.1-13.1 58 1.7 8.5 9.3 14.4 12.7 22h-96v-133zm58 0l-5 39-29-7.3-10-4.4-1-27.3zm71 0l-12 37-5.4 11.3-16.6-3.8-33-3.5 6-41zm17 0v59l-25-6 17-53zm76 0l30 1c-11.8 8.8-23.5 19.6-37 25.8-11.9 5.5-26.8 4.3-38 10.7-9.9 5.7-14.5 15.1-20 24.5h-2c-5.3-18-1-43.2-1-62zm-45.5 103c-1.1-6.5 0.4-12.3-1.7-19-1.8-5.9-10.2-14.3-9.4-20 3.7-25.8 29.5-23.3 47.6-30.3 18.7-7.3 31.2-25.1 49-32.8 6.8-2.9 17.7-0.9 25-0.9v133h-106c1.7-12.7-2.4-18.1-4.5-30zm251.5-103v133h-133v-133zm141 0v133c-17.6 0-37.6 2.7-55-0.2-8.3-1.4-15.3-9-24-9.3-5.2-0.2-6.2 5.5-7 9.5h-34l-12-0.8-1-9.2v-25-98zm141 0v133h-133v-133zm102 0c9.5 0 30.3 0.5 37.4 7.7 5 5.1 1.6 25.3 1.6 32.3v93h-133v-133z"/>
	<path id="Layer" class="s2" d="m1108 1748v2l-2-2zm21.3 0.7l0.4 0.6z"/>
	<path id="Layer" fill-rule="evenodd" class="s1" d="m1262 1748c0 7-3.6 16.9-12 18.1-3.8 0.5-8.7-3.8-12-5.3-6.9-3.3-13.5-4.6-21-5.5-29.5-3.5-56.6 3.1-86-6.3v-1zm141 0v133h-134v-64h8c-0.6 1.9-1.5 4-1.7 6-1.4 17.6 23-0.6 27.7-0.1 10.8 1 17.6 12.7 30 9.1 2.8-0.9 5.6-2.1 8-3.8 17.8-12.5 4.1-28.8 5.6-45.2 1.1-12.2 9-22.8 2.4-35zm141 0v133h-134v-133zm141 0v133h-134v-133zm18 133c-2.7 0-7.1 0.8-9.4-1-4.3-3.5-1.6-20.8-1.6-26v-77c0-5.3-2.9-25.8 2.3-28.4 8.8-4.3 27.9-0.6 37.7-0.6h93v133zm263-133v133h-29c0-11.5 1.3-23.7 3.2-35 0.5-3.5 3.7-10.5-0.5-12.9-5.1-3-11.7 5.8-14.4 8.9-7.3 8.3-14.6 16.4-21.5 25-3.2 4-6.6 10.4-11.1 13-4.4 2.6-12.7 1-17.7 1h-41v-133zm34 0v133h-26v-133zm-731 0l1 1zm36 2l1 1zm29 0l-1 3z"/>
	<path id="Layer" class="s2" d="m1335 1751l1 1zm-206 2l1 1zm19 1l1 1z"/>
	<path id="Layer" class="s1" d="m1301 1754l1 1z"/>
	<path id="Layer" class="s2" d="m1299 1755l1 1zm-971.3 1.3l0.6 0.4zm68.7 1.3l0.3 0.7z"/>
	<path id="Layer" class="s1" d="m1227 1765.5c4.4 1 12.4 3.4 15.3 7.1 1.9 2.4 0 4.9 0.6 7.4 1.1 5.3 7.2 8.3 12.1 8l6.9 18 0.1 75h-133v-123c32.5 10.6 65.3 0 98 7.5z"/>
	<path id="Layer" class="s2" d="m1143.7 1758.3l0.6 0.4z"/>
	<path id="Layer" class="s3" d="m1183 1758l1 1z"/>
	<path id="Layer" class="s2" d="m1184 1758l1 1zm-11 1l1 1zm38 0l1 1z"/>
	<path id="Layer" class="s1" d="m1305 1759l-1 2z"/>
	<path id="Layer" class="s3" d="m395 1760l1 1z"/>
	<path id="Layer" class="s2" d="m1236 1760l1 1zm-56 2l1 1zm47 0l1 1zm72.3 3.7l0.4 0.6z"/>
	<path id="Layer" class="s3" d="m260 1768l1 1z"/>
	<path id="Layer" class="s1" d="m275 1773l-4-1 3-4z"/>
	<path id="Layer" class="s2" d="m269 1771l1 1zm1058.3 0.7l0.4 0.6zm-1057.4 0.4l1 1zm56.4 0.6l0.3 0.7zm946 0l0.3 0.6zm15 0l0.4 0.7zm-17.3 0.3l1 1zm-2 2l1 1z"/>
	<path id="Layer" class="s1" d="m251.4 1800.6c-4.3-4.3-8.3-21.1-0.3-23.8 3.5-1.1 7.7 1 10.9 2.2 3.3 1.3 9.8 2.6 12 5.6 3.4 4.7 2.2 25.1 0 30.4-6.3-6.9-16.3-8-22.6-14.4z"/>
	<path id="Layer" class="s2" d="m492 1776l1 1zm773 1l1 1z"/>
	<path id="Layer" class="s4" d="m1264 1778l1 1z"/>
	<path id="Layer" class="s2" d="m389 1779l1 1zm97.7 0.3l0.6 0.4zm-192.6 0.6l1 1zm188.3 0.7l0.3 0.7zm819.7-0.7l1 1zm-43.7 1.7l0.4 0.6zm-934 1l0.3 0.7zm930 0l0.3 0.6zm-947 1l0.4 0.7zm165.3-0.3l0.7 0.3zm-158.7 1.7l1 1zm148.7 0.3l0.6 0.3zm-139.6 0.7l1 1z"/>
	<path id="Layer" class="s1" d="m319 1796.6c22.7 3.5 44 5.2 66 12.3 7 2.3 25.4 3 30 8.8 2 2.6 1 8.2 1 11.3v27c-36.1 0-66.5-10.6-100-22.7-8.1-3-27.1-4.8-32-12.6-4.3-7.1-1-24.5-1-32.7 12.1 1.8 23.8 6.6 36 8.6zm1024.3 24.3c-8.6 12.3-29.7 6.6-37.3-2.9l34-30c4.9 6.6 8.2 25.7 3.3 32.9z"/>
	<path id="Layer" class="s2" d="m1343 1794l1 1zm-960.3 4.3l0.6 0.4z"/>
	<path id="Layer" class="s1" d="m1270 1798l1 1z"/>
	<path id="Layer" class="s2" d="m399 1803l1 1zm946 0l1 1zm-1089 1l1 1zm2 1l1 1zm1061 1l1 1zm-904.3 1.3l0.6 0.4zm-168.6 0.6l1 1z"/>
	<path id="Layer" class="s1" d="m274.4 1829c2.2 5.9 0.6 14.8 0.6 21-12.8-7.1-35.8-25.1-30-41 7.9 2.5 26.3 11.9 29.4 20z"/>
	<path id="Layer" class="s2" d="m234.3 1811.7l0.4 0.6zm1110 8l0.3 0.7zm-1062.3 0.3l1 1z"/>
	<path id="Layer" class="s1" d="m424 1820v35c17.1-5.1 13.8-27.8 0-35z"/>
	<path id="Layer" class="s2" d="m244.7 1822.3l0.6 0.4z"/>
	<path id="Layer" class="s1" d="m1291 1822l1 1z"/>
	<path id="Layer" class="s2" d="m1310 1822l1 1zm-1024 1l1 1zm1013 0l1 1zm-1065 1l1 1zm54 0l1 1zm4.7 2.3l0.6 0.4zm1028.7 2.3l0.3 0.7zm11.4 2.6l0.6 0.4z"/>
	<path id="Layer" class="s1" d="m263 1853.7l11.4 9.4 0.6 17.9c-6.3 0-15.1 1.6-21-0.6-20.9-7.7-18.3-32.2-14-48.4zm54-8.8c32.6 10.8 64.3 21.4 99 22.1v14c-19.4 0-40.8 2.5-60-0.3-14.1-2-28.7-8.5-42-13.5-7.9-3-25-5.5-30-12.8-3.2-4.7-1-15.9-1-21.4 11.6 2 22.8 8.2 34 11.9z"/>
	<path id="Layer" class="s2" d="m316.7 1834.3l0.6 0.4zm11.4 4.6l1 1zm5 1l1 1zm14 6l1 1zm3.3 0.7l0.3 0.7zm3 1l0.4 0.6z"/>
	<path id="Layer" class="s1" d="m1930 1848l-3 33h-25l26-33z"/>
	<path id="Layer" class="s3" d="m359 1849l1 1z"/>
	<path id="Layer" class="s2" d="m277.3 1851.7l0.4 0.6zm89.6-0.6l1 1zm9 2l1 1zm10 2l1 1zm14.4 1.6l0.3 0.7zm-108.7 2.6l0.7 0.4zm-65.7 0.7l1 1z"/>
	<path id="Layer" class="s1" d="m440 1860c2.1 5 4.3 17.5-2.2 20.4-3.8 1.7-9.7 0.6-13.8 0.6 0-14 2.3-16.8 16-21z"/>
	<path id="Layer" class="s2" d="m440 1860l1 1zm-144 1l1 1zm145.3 0.7l0.4 0.6zm-214 1l0.3 0.7zm204 0l0.3 0.6zm-130.6 0.7l0.6 0.3z"/>
	<path id="Layer" class="s1" d="m319 1881h-36v-14c10.2 1.5 28.2 7.2 36 14z"/>
	<path id="Layer" class="s3" d="m313 1867l1 1z"/>
	<path id="Layer" class="s2" d="m229.7 1868.3l0.6 0.4zm86 0l0.7 0.3zm1586.3-0.3l1 1zm-1584 1l1 1zm-85 4l1 1zm95 0l1 1zm114.4 1.7l0.3 0.6z"/>
	<path id="Layer" class="s3" d="m754 1876l1 1z"/>
	<path id="Layer" class="s2" d="m342 1877l1 1z"/>
	<path id="Layer" class="s1" d="m760 1878c0.8 3.7 3.6 3 7 3z"/>
	<path id="Layer" class="s2" d="m776 1878l1 1zm-22.7 1.7l0.4 0.6zm24.6-0.6l1 1zm-424 2l1 1zm84 0l1 1zm1454 0l1 1zm-1534 1l1 1zm8.4 1.6l0.3 0.7z"/>
	<path id="Layer" fill-rule="evenodd" class="s1" d="m135 1889v133h-133v-133zm85 0c14.5 0 27.4-2 38.9 8.5 7 6.5 1.9 22.7 4.3 31.5 2 7.7 9.6 12.1 11.5 19.1 1.9 7.1 0.3 16.6 0.3 23.9v50h-133v-133zm55 0v6l-11-5v-1zm75 0.2l66 8.8c0 6.7 3.1 23.9-1 29.3-4.1 5.2-17.4 3.3-23 2.8-9-0.8-16.5-7.2-25-10.1-13.6-4.6-28.2-6.2-42-10-8.6-2.4-16.4-7-25-9.2-4.5-1.2-10.8 0.4-14.7-2.7-2.7-2.1-2.3-6-2.3-9.1zm74 72.8c0-7.8-2.2-19.6 0.6-26.9 3.2-8.4 14.5-13.9 19.1-22.1 2.3-4.2 4-9.1 2.7-14-0.7-2.4-4.3-7.5-0.9-9.4 6.9-3.8 23.6-0.6 31.5-0.6h80v133h-133zm274-73v133h-133v-133zm53 0c-2.5 31.5 2.4 64.9 7.4 96 2 12.2 6.1 24.7 6.6 37h-59v-133zm34 0.4c10.7 2.1 21.7 10.1 31 15.5 4.2 2.4 16.2 6.7 16.8 12.2 0.4 4.8-4.9 12-7.3 15.9-9.2 15.2-22.3 30.2-39.5 36-4.2 1.5-15.4 6.1-19.5 3.7-4.5-2.6-4-17-4.5-21.7-2.4-20.9-4-40.9-4-62 8.6 0 18.5-1.3 27 0.4zm54-0.4v21l-39-20v-1zm141 0v133c-18.4 0-29.6-20.9-42-33-19.1-18.6-39.2-36-61-51.5-7.3-5.3-25.5-13.5-29.3-21.7-3.1-6.9-0.7-19.3-0.7-26.8zm141 0v133h-133v-133zm141 0v133h-133v-133zm141 0v133h-134v-133zm141 0v133h-134v-133zm141 0v133h-134v-133zm140 0v133h-133v-133zm61 0c-3.1 6.2-15.1 16.9-13.8 24 0.9 4.6 6.8 6.4 10.8 6.8 10.2 1.3 19.9 2.6 30 4.8 5 1.1 11.2 2.7 16 0 8.9-5.2 7-26.6 7-35.6h30v133h-132v-133zm11 26c-4.2-0.1-10.6 0.2-12.9-4.2-2.1-3.9 2.1-8.7 4.1-11.8 8.8-13.7 23.2-10 37.8-10l-1 30c-9.6 0-18.6-3.7-28-4zm103-26v133h-26v-133z"/>
	<path id="Layer" class="s2" d="m751 1891l1 1zm-474 5l1 1zm151 0l1 1z"/>
	<path id="Layer" class="s1" d="m424 1898v23c11.4-5.4 18.9-26.5 0-23z"/>
	<path id="Layer" class="s2" d="m287 1900l1 1zm10.3 0.7l0.4 0.6zm19.3 7.7l0.7 0.3zm4.6 1.4l0.4 0.6zm1604.6 3.4l1 1zm-1586 1l1 1zm4.7 1.3l0.7 0.3zm4.3 0.7l1 1zm8 2l1 1zm1562.3 1.7l0.4 0.6zm-1552.4 0.4l1 1zm2.7 1.3l0.7 0.3zm476 5l0.6 0.4z"/>
	<path id="Layer" class="s1" d="m848 1956h-1l5-29c7.4 6.3-2.1 21-4 29z"/>
	<path id="Layer" class="s2" d="m828 1928l1 1zm-399 1l1 1z"/>
	<path id="Layer" class="s1" d="m833.7 1962c-6.6 19.1-14.7 40-17.7 60h-5c2.5-31.8 18.3-62.7 27-93 4.3 10.3-1 23.2-4.3 33z"/>
	<path id="Layer" class="s2" d="m868 1931l1 1zm-43 2l1 1z"/>
	<path id="Layer" class="s1" d="m869 1939l-21 75h-1c0-28 3.5-53 15-79z"/>
	<path id="Layer" class="s2" d="m854.3 1937.7l0.4 0.6z"/>
	<path id="Layer" class="s1" d="m416 1961c0 19.2-3.5 42.3 1 61h-134v-69c22.6 5.7 49.8 24 74 18.5 9.4-2.2 17.2-9.6 22.2-17.5 2.4-3.9 4.2-10.5 8.2-13 3-1.8 7.3-0.2 10.6 0 5.7 0.1 11.7-1 17-3 2.7 6.4 1 16 1 23z"/>
	<path id="Layer" class="s2" d="m827 1940l1 1zm26 0l1 1zm-0.7 2.7l0.4 0.6z"/>
	<path id="Layer" class="s1" d="m817.9 1968c-5.7 16.5-13.4 36.7-14.9 54h-5c5.2-25.1 12.1-57.9 27-79 1.2 6.9-4.8 18.3-7.1 25z"/>
	<path id="Layer" class="s2" d="m885 1944l1 1zm-33.7 1.7l0.4 0.6z"/>
	<path id="Layer" class="s1" d="m876.3 1965c-3.6 12.9-6.7 26-10.1 39-1.3 4.9-0.9 12.4-4.3 16.4-2 2.3-6.2 1.6-8.9 1.6l21-77c9.9 1.5 4.2 13.3 2.3 20zm17.7-5l-8.2 28-6.8 34h-10l13.3-50 3.7-19z"/>
	<path id="Layer" class="s2" d="m809.7 1959.3l0.6 0.4z"/>
	<path id="Layer" class="s1" d="m803.9 1976c-3.5 10.4-7.7 21.3-9.7 32-0.8 4.6-1.2 12.5-6.2 14l12.4-45 7.6-16c0.7 4.7-2.6 10.5-4.1 15zm88.9 32c-1.4 4.3-1.9 13-6.8 14l13-59c10.8 6.9-2.6 34.6-6.2 45z"/>
	<path id="Layer" class="s2" d="m844.7 1965.3l0.6 0.4zm46.4-0.4l1 1zm-73 3l1 1zm26 0l1 1zm71 0l1 1zm-555.7 1.7l0.3 0.7zm472.4-0.4l0.6 0.4z"/>
	<path id="Layer" class="s1" d="m783.8 2010c-1.1 4.2-2.1 9.6-5.8 12 1.2-14.9 6.7-33.5 13-47l-3-2 6-3c2.4 10.3-7.3 29.6-10.2 40zm47.7 0c-1.8 5.9-1.2 11.4-8.5 12l15-51c4.8 11.5-3.1 27.9-6.5 39zm86.1-30c1.2 4-3.1 10.1-4.1 14-3 11.6-0.4 28-15.5 28l12-48c3 1 6.6 2.6 7.6 6z"/>
	<path id="Layer" class="s2" d="m758 1975l1 1z"/>
	<path id="Layer" class="s1" d="m784 1975l-11 38h-2c0-10.3 1.2-34.7 13-38z"/>
	<path id="Layer" class="s2" d="m923 1975l1 1zm-129 1l1 1zm108.7 0.3l0.6 0.4zm-87.6 0.6l1 1zm-21.7 1.7l0.3 0.7z"/>
	<path id="Layer" class="s1" d="m769 1979l-1 7h-1l-1-7z"/>
	<path id="Layer" class="s2" d="m827 1983l1 1zm-58.3 1.3l0.6 0.4z"/>
	<path id="Layer" class="s1" d="m919 2022h-4l8-37c12.7 6-3.5 26.3-4 37z"/>
	<path id="Layer" class="s2" d="m871.3 1986.7l0.4 0.6zm-71 2l0.3 0.7zm70 2l0.3 0.6zm-110.3 1.4l1 1zm64 0l1 1zm30 1l1 1z"/>
	<path id="Layer" class="s3" d="m869 1994l1 1z"/>
	<path id="Layer" class="s2" d="m810.3 1995.7l0.4 0.6z"/>
	<path id="Layer" class="s1" d="m937 2022h-11l8-26c13.9 6.5 4.8 15.3 3 26z"/>
	<path id="Layer" class="s2" d="m787 1997l1 1zm10.3 0.7l0.4 0.6zm86.3 0.7l0.7 0.3zm-31.4 1.4l0.4 0.6zm42.6 1.4l1 1zm30 0l1 1zm-139.3 2.3l0.7 0.3zm109.3 0.7l1 1zm-87.7 1.7l0.4 0.6zm42.6 0.4l1 1zm-86.6 1.6l0.3 0.7zm31.3-0.4l0.7 0.4zm25.7 0.3l0.3 0.7zm122 0l0.3 0.6zm6.4 0.7l0.6 0.3zm-142.3 1.4l0.3 0.6z"/>
	<path id="Layer" class="s1" d="m948 2010l-4 12c10 0 13.1-5.5 4-12z"/>
	<path id="Layer" class="s2" d="m764 2012l1 1zm84.7 0.3l0.6 0.4z"/>
	<path id="Layer" class="s1" d="m838 2013l-2 9c4-0.9 3.8-6 2-9z"/>
	<path id="Layer" class="s2" d="m910 2014l1 1zm10.7 1.3l0.6 0.4zm-138.3 1.3l0.3 0.7zm64.4 1.6l0.6 0.4zm91.4 0.6l1 1zm-157 1l1 1zm-15 1l1 1zm63 0l1 1zm131 1l1 1zm-179.7 1.7l0.3 0.7zm35 0l0.4 0.6zm92 0l0.3 0.7zm-104.7 0.6l0.7 0.4zm-12.3 1.3l0.3 0.7zm71 0l0.3 0.6zm-58.3 1.4v2l-2-2z"/>
	<path id="Layer" class="s3" d="m860 2029l1 1zm91 0l1 1z"/>
	<path id="Layer" fill-rule="evenodd" class="s1" d="m135 2030v123l-1.6 9-9.4 1h-122v-133zm140 0v133h-133v-133zm141 0v133h-133v-133zm141 0v133h-133v-133zm141 0v133h-122l-9.4-1-1.6-9v-123zm69 0l18.7 68 6.3 25 6.6 11 10.4 29h-103v-133zm11 0l-1 6h-1v-6zm11 0l-5 28c-7.4-5.2 0.8-20.3 1-28zm4.6 13c0.9-5.8 0.2-12.4 7.4-13l-11 54h-1c-3-13.5 2.3-27.6 4.6-41zm19.4-13l-17 72h-1l3-23 10-49zm1.8 22c1.9-7 2.4-21.3 11.2-22l-21 96h-2c-3.5-24.1 5.5-50.6 11.8-74zm24.2-22l-1 20-10.6 21-6.9 37-8.5 37h-1c-3.3-9.6 1.8-24.2 3.8-34 5.5-26.9 14.2-53.9 18.2-81zm21 0c-2.1 6.4-5.6 9.6-12 12l2-12zm12 1l-6 1v-1zm62-1l-2 7-9-7zm17 0l-5 19c-6.5-4.9-6.4-11.6-5-19zm15.9 1.6l-2.1 9.4-9.8 24c-4.1-12.9 0-21.9 3-35zm13.1-1.6v4l-4-4zm141 0v57c-10.8-4.8-19.9-13.6-31-18.7-30.2-13.8-55.4-8.6-86-1.3-9.3-13-16-20.7-16-37zm141 0v122l-1 9.4-12 1.6h-65l-11.7-1-16.2-29-16.4-24.3-10.2-13-0.5-20.7v-45zm141 0v122c0 2.7 0.8 7.1-1 9.4-3.5 4.4-20.7 1.6-26 1.6h-78c-5.2 0-25.8 2.9-28.4-2.3-4.3-8.8-0.6-27.9-0.6-37.7v-93zm141 0v122c0 2.7 0.8 7.1-1 9.4-3.5 4.4-20.7 1.6-26 1.6h-78c-5.2 0-25.8 2.9-28.4-2.3-4.3-8.8-0.6-27.9-0.6-37.7v-93zm141 0v122c0 2.7 0.8 7.1-1 9.4-2.8 3.5-13.9 1.6-18 1.6-16.5 0-38.2 3.7-54-1 4.6-6.1 10.9-10.8 15.6-17 11.1-14.8 20.1-32.4 25.8-50 3.4-10.7 1.8-28.6-13.4-25 14.1 18.6 1.5 39.4-8.2 58-4.1 7.8-9.8 18.7-17.8 23-3-16.1-5.9-30.4-20-41-4.6-3.4-12-7.5-18-5.3-23.8 9.1-2.1 46.6 6 58.3h-31v-133zm140 0v133h-123l-8.9-1.6-1.1-9.4v-122zm141 0v87l1 45-43 1h-90v-133zm34 0v133h-26v-133z"/>
	<path id="Layer" class="s2" d="m843 2031l1 1zm91 0l1 1z"/>
	<path id="Layer" class="s1" d="m848.7 2048.5c5.9-7.8 20.2-12.7 29.3-14.4 21.4-3.9 46.1-0.1 60.8 17.9 2.7 3.4 2.1 7.3 4.2 10.7 1.5 2.3 4.4 3.2 5.9 5.4 5 7.2 6.1 19.5 4.6 27.9-4.9 27.6-34.7 57.2-63.5 56-20.3-0.9-52.1-20-42-44 19.8 29.9 51.6 27.9 77.2 8 9.3-7.4 19.8-18.4 20.7-31 2-29.1-42-44.9-64.9-37.5-17.5 5.7-24.2 19.6-33 34.5h-1c0-8.4-3.4-26.7 1.7-33.5z"/>
	<path id="Layer" class="s2" d="m788.3 2033.7l0.4 0.6zm70.6-0.6l1 1zm74.4 1.6l0.3 0.7zm-18 1l0.3 0.6zm52 0l0.4 0.7zm-155.4 1.3l1 1zm29 0l1 1z"/>
	<path id="Layer" class="s3" d="m824 2038l1 1z"/>
	<path id="Layer" class="s1" d="m977.9 2045l-4.2 10-12.7 28c0-14.6 4.8-31.3 12-44z"/>
	<path id="Layer" class="s2" d="m823 2042l1 1zm16.7 1.3l0.6 0.4zm138.4-0.4l1 1zm-155.4 2.4l0.7 0.3zm139.3 2.7l1 1z"/>
	<path id="Layer" class="s1" d="m937.7 2078c4.3 24.5-21.8 44.6-43.7 47.7-16.2 2.3-37.2-8.7-40.6-25.7-4.2-20.9 14.5-45.9 34.6-48.6 17.7-2.3 46 6.1 49.7 26.6z"/>
	<path id="Layer" class="s2" d="m876 2053l1 1zm111.3 2.7l0.4 0.6zm-45.4 0.4l1 1zm30.4 2.6l0.3 0.7z"/>
	<path id="Layer" class="s1" d="m972.8 2085c-8.6 18.3-16.1 37.1-23.1 56-3 8-4.5 21.7-14.7 22l14.6-37 29.4-68c4 9.4-2.3 18.7-6.2 27z"/>
	<path id="Layer" class="s2" d="m932 2059l1 1z"/>
	<path id="Layer" class="s1" d="m839 2107h-1c-3.7-16-6.1-30.2 0-46 5 11.9 1 33 1 46zm150-26h-1l3-19c4.7 4.9-0.5 13.3-2 19zm47-17.8c20.8-2 42 4.7 60 14.7 8 4.5 20.2 11.3 24.1 20.1 2.2 5.1 0.9 12.5 0.9 18v39c-23.1-6.6-40.2-6.6-63 0-11.1-19-21.3-38.4-33-57-4.5-6.9-14-16.6-14-25l-3-3c9.5-2.2 18.2-5.9 28-6.8z"/>
	<path id="Layer" class="s2" d="m818 2064l1 1zm-41.3 2.3l0.6 0.4zm310 1l0.7 0.3zm-293.3 2.4l0.3 0.6zm846.7 1.3l1 1zm-688.7 1.7l0.3 0.7zm40.7-0.7l1 1zm-189 1l1 1z"/>
	<path id="Layer" class="s1" d="m989 2112h-1c0-13.4 4.7-27.2 11-39 6.9 7.5-7.2 30.2-10 39z"/>
	<path id="Layer" class="s2" d="m827 2074l1 1zm25 0l1 1zm100 1l1 1zm-137 1l1 1zm-34.7 2.7l0.4 0.6zm11 1l0.3 0.7zm196.7 2.3l1 1zm-27 1l1 1zm-147.4 1.3l0.7 0.4z"/>
	<path id="Layer" class="s1" d="m1005.4 2102c-5.6 13.2-12 26.3-16.4 40h-1c0-18.4 9.9-42.1 19-58 5 5.7 1 12-1.6 18z"/>
	<path id="Layer" class="s2" d="m800 2085l1 1zm48 2h-2l1-2zm124.3-0.3l0.4 0.6z"/>
	<path id="Layer" class="s1" d="m975 2118c-5.7 14.6-11.7 29.9-16 45h-10c4.5-26.1 19.9-52.7 30-77 4.2 9.9-0.4 22.7-4 32z"/>
	<path id="Layer" class="s2" d="m999 2086l1 1zm-215.7 1.7l0.4 0.6zm864.3 1.7l0.7 0.3z"/>
	<path id="Layer" class="s3" d="m798 2093l1 1z"/>
	<path id="Layer" class="s2" d="m968.3 2094.7l0.4 0.6zm16.6 1.4h-2v-2zm30.4-1.4l0.3 0.7zm-192.3 0.3l1 1zm113 1l1 1z"/>
	<path id="Layer" class="s1" d="m1011 2113c-5 12.2-8.2 25.5-12.6 38-2 5.6-2.7 11.5-9.4 12l9-26 17-41c4.7 6-1.6 11.2-4 17z"/>
	<path id="Layer" class="s2" d="m1645.3 2099.7l0.4 0.6zm-639.4 0.4l1 1zm-210 1l1 1z"/>
	<path id="Layer" class="s3" d="m810 2101l1 1z"/>
	<path id="Layer" class="s2" d="m821.7 2103.3l0.6 0.4zm170 1l0.7 0.3zm-182.3 1.4l0.3 0.6z"/>
	<path id="Layer" class="s1" d="m827.8 2149c-1.1 2.9-3.2 14.6-7.8 13.3-5.3-1.6-2-10.8-1.1-14.3 3.5-14.1 4.3-29.6 10.1-43 7.5 15.2 4.6 28.5-1.2 44z"/>
	<path id="Layer" class="s2" d="m980 2105l1 1zm23.3 1.7l0.4 0.6z"/>
	<path id="Layer" class="s1" d="m1018.4 2122c-4.6 13.2-9.2 27.4-12.4 41h-4l19-57c5 5.4-0.6 10.4-2.6 16z"/>
	<path id="Layer" class="s2" d="m1022 2106l1 1zm-58.7 1.7l0.4 0.6zm16 0l0.3 0.7z"/>
	<path id="Layer" class="s1" d="m1162 2163l-33-5v-51c13.3 10.8 30.4 38.9 33 56z"/>
	<path id="Layer" class="s2" d="m1641.3 2108.7l0.4 0.6zm-833.4 1.4l1 1zm761 0l1 1zm-749 1l1 1z"/>
	<path id="Layer" class="s1" d="m1605.6 2145c1 6.8 1.6 14.2-6.6 15.6-16.3 2.6-23.7-19.7-24-32.6-0.1-6.3-1.3-15.2 7-16.4 14-2 22 23.2 23.6 33.4z"/>
	<path id="Layer" class="s2" d="m1001 2113l1 1zm-193.7 1.7l0.4 0.6zm191.6 2.4l1 1z"/>
	<path id="Layer" class="s1" d="m1026.3 2131l-8.3 32h-5l14-46z"/>
	<path id="Layer" class="s2" d="m1635 2122l1 1zm-652 3l1 1zm-148.7 1.7l0.4 0.6zm49 0l0.3 0.7zm716.7-0.7l1 1zm-694 1l1 1zm66 0l1 1z"/>
	<path id="Layer" class="s1" d="m979 2127l-13 36c8.7-1.4 16.3-28.3 13-36z"/>
	<path id="Layer" class="s2" d="m840.7 2128.3l0.6 0.4z"/>
	<path id="Layer" class="s3" d="m994 2128l1 1z"/>
	<path id="Layer" class="s2" d="m1006 2128l1 1z"/>
	<path id="Layer" class="s1" d="m1034 2128l-8 35c7.3-2.1 13.2-29.5 8-35z"/>
	<path id="Layer" class="s2" d="m1036 2129l1 1zm-239 1l1 1zm101 0l1 1zm56 0l1 1zm51.3 0.7l0.4 0.6z"/>
	<path id="Layer" class="s1" d="m939 2132c-8.9 8.9-15.1 18.2-17 31 8.4-0.7 17.1-23.1 17-31z"/>
	<path id="Layer" class="s2" d="m1603 2132l1 1zm-663 1l1 1zm64.3 0.7l0.4 0.6zm11 0l0.3 0.7zm11 0l0.3 0.6zm-23.3 2.4l1 1zm147 0l1 1zm418 0l1 1zm-600 1l1 1zm23 0l1 1zm34 0l1 1zm601 0l1 1z"/>
	<path id="Layer" class="s1" d="m839 2163h-8l7-24z"/>
	<path id="Layer" class="s2" d="m1569.3 2139.7l0.4 0.6zm-738.7 0.7l0.7 0.3zm147.6 0.4l0.4 0.6zm46 0l0.3 0.7z"/>
	<path id="Layer" class="s1" d="m1042 2142l-6 20c10.6 2.8 10.8-14.2 6-20z"/>
	<path id="Layer" class="s2" d="m1044 2143l1 1z"/>
	<path id="Layer" class="s1" d="m860 2148c-1.2 7.9-3.2 14.9-12 15l4-19z"/>
	<path id="Layer" class="s2" d="m1023.3 2144.7l0.4 0.6zm547.6 0.4l1 1zm35 0l1 1zm-802.3 1.3l0.7 0.3zm41 0l0.6 0.4zm-33 1l0.7 0.3zm153 0l0.7 0.4zm57.3 0.6l1 1zm11.3 0.7l0.4 0.7zm-173.4 1.3l1 1zm53 0l1 1z"/>
	<path id="Layer" class="s1" d="m907 2163c8.3-0.1 10.2-5.6 12-13-7.7 1.8-10.8 5.1-12 13z"/>
	<path id="Layer" class="s2" d="m1096.7 2150.3l0.6 0.4z"/>
	<path id="Layer" class="s1" d="m867 2152l-4 11c7-0.2 11-6.7 4-11z"/>
	<path id="Layer" class="s2" d="m909 2152l1 1zm75 1l1 1zm88.7 0.3l0.6 0.4z"/>
	<path id="Layer" class="s1" d="m1106 2156.6c4.7 1.3 12.3 2.2 15 6.4h-43c-6.5 0-13.5 1.4-18-4 15.9-6.5 29.4-6.8 46-2.4z"/>
	<path id="Layer" class="s2" d="m1067 2155l1 1z"/>
	<path id="Layer" class="s1" d="m883 2157c-1 3.8-2.1 5.3-6 6l2-7zm18-1c-0.8 7.4-5.7 7-12 7l1-6z"/>
	<path id="Layer" class="s2" d="m808 2157l1 1zm122 0l1 1zm-87.7 1.7l0.4 0.6zm29 0l0.3 0.7zm72 0l0.3 0.6z"/>
	<path id="Layer" class="s1" d="m979 2158l-1 5z"/>
	<path id="Layer" class="s2" d="m1030.3 2158.7l0.4 0.6z"/>
	<path id="Layer" class="s1" d="m1054 2163h-4l1-5z"/>
	<path id="Layer" class="s2" d="m824.3 2159.7l0.4 0.6zm308.3-0.3l0.7 0.3zm29.3-0.3l1 1zm432.3 2.7l0.4 0.6zm-783.7 1.7l0.7 0.3zm116.3-0.3l1 1zm54 0l1 1zm166 0l1 1zm-234 1l1 1zm45 0l1 1zm-136 2l1 1zm76 0l1 1zm42 0l1 1zm-86 2l1 1zm24.3 0.7l0.4 0.6z"/>
	<path id="Layer" class="s1" d="m95 2170c9.8 0 28.9-3.7 37.7 0.6 5.2 2.6 2.3 23.1 2.3 28.4v78c0 5.2 2.7 22.5-1.6 26-2.3 1.8-6.7 1-9.4 1h-25-97v-134zm47 34v-24l1.6-9 9.4-1h25 97v134h-133zm181 100c-9.8 0-28.9 3.7-37.7-0.6-5.2-2.6-2.3-23.1-2.3-28.4v-78c0-5.2-2.7-22.5 1.6-26 2.3-1.8 6.7-1 9.4-1h25 97v134zm234-134v134h-133v-134zm8 34v-24l1.6-9 9.4-1h25 97v134h-133zm153 100c-3 0-8.9 1.1-11-1.6-3.9-5-1-21.2-1-27.4v-75c0-5.7-3-25.3 1.6-29 4.8-3.8 20.4-1 26.4-1h54c6.7 0 17.6-2.1 23.8 0.6 4 1.7 5.5 7.5 6.2 11.4-49.3 20.5-68 72.6-68 122zm121-134l-5 25h-1c-4.6-11.3-11.7-25 6-25z"/>
	<path id="Layer" class="s2" d="m839 2170l1 1z"/>
	<path id="Layer" fill-rule="evenodd" class="s1" d="m852 2170l-4 15h-1c0-5.6-2-13.8 5-15zm3.9 12c1.6-5.6 2.5-11.5 9.1-12l-17 45h-1c0.1-11.8 5.5-21.9 8.9-33zm-0.6 33c3.5-11 7.1-22.6 12.1-33 2.3-4.6 4.4-10.4 9.6-12l-15.6 38-9.4 22c-1.1-5.4 1.6-9.9 3.3-15zm1.8 22c0-5.5 4.8-12.9 6.8-18 5.5-14 10.3-35.1 19.9-46.7 2.7-3.1 7.6-2.3 11.2-2.3l-11.6 30-19.4 48c-3-2.5-6.8-6.8-6.9-11zm18.4 0c6.7-17 13.3-34.3 20.6-51 3.5-7.9 3.9-15.9 13.9-16l-13.7 29-24.3 61c-7.2-4.2 1.1-17.1 3.5-23zm6.4 14c7.1-20.5 15.8-40.6 25.3-60 3.6-7.1 6.7-20.3 15.8-21l-12.5 32-29.5 73c-8.3-7-2-15.7 0.9-24zm12.3 8c9.1-21.9 17.7-44.1 27-66 3.5-8.5 6.1-22.7 16.8-23-6.1 29.4-21.3 61.7-35.5 88-4.9 9-8.5 20.5-15.5 28-3.3-7.8 4.1-19.6 7.2-27zm10.6 8c12.6-22 23.1-47.1 31.3-71 3.8-11 5.4-26 18.9-26-0.9 14.6-11 31.6-16.7 45-12.3 29-24.4 58.2-39.3 86h-2c-8.3-12.3 1.2-22.5 7.8-34zm17.7 0c10-21 18.8-42.5 27.7-64 3.5-8.4 7.4-30.2 16.8-33-1.1 12.2-7.3 24.4-11.1 36-7.7 23.3-16.2 46.4-25.9 69-5.9 13.8-8 29-25 29 3.7-12.8 11.8-25 17.5-37zm13.2 11c9.6-23.8 19.4-47.6 27.4-72 3-9.1 6.2-31.4 14.9-36-8.1 34.8-21.9 69.7-34.9 103-3.3 8.6-8.6 30.2-19.1 31 2.6-9 8.2-17.3 11.7-26zm66.9-84c1.1-3.9 5.8-24.9 11.1-23.2 4.4 1.4-3.2 20.6-4 24.2-3.7 16.5-9 32.7-13.3 49-2.2 8.3-3.9 19.8-8.4 27 0-27.7 6.5-50.6 14.6-77zm-7.9-12c1.7-4.8 2.6-11 8.3-12l-14 46h-1c0-12.4 2.5-22.3 6.7-34zm-3.7-12l-2 10h-1v-10zm35 0l1 1c-8.3 31.1-17.7 61.9-26 93-2 7.7-3.7 28.3-12 31l19.2-67 15.8-58zm14 0c-4 29.9-15.6 61.1-24.3 90-2.8 9.4-4.3 25.9-14.7 29 12.4-38.7 24.8-79.3 33-119zm1 25c1.2-4.1 4.3-26.9 10.7-24.3 4.7 1.9-3.7 23.2-4.8 27.3-5.8 20.4-11 41.1-18.6 61-3.5 9.3-2.1 16.4-11.3 22 5.4-28.6 15.4-58.1 24-86zm64-25l14.4 1 1.6 9v124c-8.4-1.3-13.5-12.7-18.6-18.8-10.6-12.6-24.7-26.4-40.4-32.2 11.2-13.9 23.5-24.8 30-42h-7l-19-41zm47 0.5c5.9 1 12 4.9 18 5 3.7 0.1 4.7-2.3 5-5.5h63c5.3 0 18.1-2.3 22.4 1 4.6 3.7 1.6 23.3 1.6 29v77c0 5.2 2.7 22.5-1.6 26-2.3 1.8-6.7 1-9.4 1h-122v-134c7.5 0 15.6-0.9 23 0.5zm146-0.5h75c5.7 0 25.3-3 29 1.6 3 3.8 1 14.7 1 19.4v97c0 3.6 1.6 12.4-1.6 15-5 3.9-21.2 1-27.4 1h-75c-5.7 0-25.3 3-29-1.6-3-3.8-1-14.7-1-19.4v-97c0-3.6-1.6-12.4 1.6-15 5-3.9 21.2-1 27.4-1zm112 10c0-2.6-0.8-7.1 1.6-9 2.9-2.3 9.9-1 13.4-1h97c4.5 0 17.9-2.2 21 1.6 4.2 5.4 1 23.6 1 30.4 0 5.8 2 16.3-0.6 21.6-2.7 5.3-15.2 1.4-19.4 0-20.3-6.7-20.3-24.4-30.4-39.4-1.6-2.4-5.5-3.3-6.3 0.3-1.3 5.4 4.7 15.2 7.4 19.5 12 19.1 27.3 27 49.3 27v52l-1 19.4-9 1.6h-124zm141 72c0-6.2-1.9-16.1 0.6-21.8 1.7-3.9 7.9-5.2 11.4-6.8 7.6-3.6 14.2-8.6 20.4-14.1 7.7-6.8 14.1-14.6 19.4-23.3 2.5-4.2 4.4-11.1 7.9-14.4 3.5-3.2 11.9-1.6 16.3-1.6h41c3.9 0 12.2-1.5 15.4 1 4.6 3.7 1.6 23.3 1.6 29v77c0 5.2 2.7 22.5-1.6 26-2.4 1.9-7.5 1-10.4 1h-122zm0-68l1.6-13 13.4-1h36c-3.1 21.1-29.1 50.8-51 53zm181 120c-9.8 0-28.9 3.7-37.7-0.6-5.2-2.6-2.3-23.1-2.3-28.4v-78c0-5.2-2.8-22.5 1.6-26 2.3-1.8 6.7-1 9.4-1h122v134zm234-134v134h-132v-134zm8 12c0-2.9-0.9-7.9 1-10.4 3.4-4.3 19.9-1.6 25-1.6v134h-26z"/>
	<path id="Layer" class="s2" d="m1603 2171l1 1zm-739 3l1 1zm58 0l1 1zm54.3 1.7l0.4 0.6zm39 0l0.3 0.7zm10.7-0.7l1 1zm13 0l1 1zm-85 1l1 1z"/>
	<path id="Layer" class="s1" d="m1057.9 2201c-3.1 12.7-5.7 25.4-9.3 38-2.3 8-6 16.6-5.6 25l-10 6 27-94c4.3 6.3-0.5 18.1-2.1 25z"/>
	<path id="Layer" class="s2" d="m875 2177l1 1zm99.7 4.3l0.6 0.4zm13.4-0.4l1 1zm12 0l1 1zm-151.4 2.4l0.7 0.3zm85.3-0.3l1 1z"/>
	<path id="Layer" class="s3" d="m951 2183l1 1zm111 0l1 1z"/>
	<path id="Layer" class="s2" d="m1597 2183l1 1zm-623 1l1 1zm13 0l1 1zm36.3 0.7l0.4 0.6zm-187 1l0.3 0.7zm34.7-0.7l1 1zm92.3 0.7l0.3 0.6z"/>
	<path id="Layer" class="s1" d="m791 2205c7.7-7.7 18.9-17.3 30-19 2.5 6.1 8.6 25.3 14 27 4 12 4 22.1 4 35 0 4 1.1 10.1-1 13.7-4.9 7.9-20 14.5-27 21.4-5.7 5.5-13 17.4-20.2 20.3-8.5 3.5-23.6 0.6-32.8 0.6 0-36.3 6.1-72.1 33-99z"/>
	<path id="Layer" class="s2" d="m962 2188l1 1zm74 0l1 1zm-64 1l1 1z"/>
	<path id="Layer" class="s1" d="m974.4 2219c-7.2 20-14.3 40.3-22.4 60-2.7 6.6-6.1 26-15 24l17.1-40 24.9-74c4.1 9.8-1.3 20.9-4.6 30z"/>
	<path id="Layer" class="s2" d="m931 2190l1 1z"/>
	<path id="Layer" class="s3" d="m1049 2190l1 1z"/>
	<path id="Layer" class="s1" d="m1067.1 2205c-2.9 12.5-5.6 25.3-11.1 37h-1l12-52c3.5 4.6 1.3 9.8 0.1 15z"/>
	<path id="Layer" class="s2" d="m868 2191l1 1zm47 0l1 1zm46 0l1 1zm-155 1l1 1zm154.3 1.7l0.4 0.6zm50.3-0.3l0.7 0.3zm-15.4 2.4l0.4 0.6zm-140.4 0.4l1 1zm104.4 0.6l0.3 0.7zm24.7-0.7l-2 2v-2zm-118 1l1 1zm-23 1l1 1zm649 0l1 1zm-534 1l1 1zm88.6 1.3l0.7 0.4zm446.3-0.3l1 1zm-598 1l1 1z"/>
	<path id="Layer" class="s3" d="m968 2201l1 1z"/>
	<path id="Layer" class="s2" d="m1018.7 2201.3l0.6 0.4zm-154.6 0.6l1 1zm63 0l1 1zm105 0l1 1zm35.3 3.7l0.3 0.7zm-216 1l0.4 0.6zm29.6-0.6l1 1zm28.4 0.6l0.3 0.7zm15.7-0.7l1 1z"/>
	<path id="Layer" class="s1" d="m1074 2206l-1 5c2.4-1.6 2.7-2.6 1-5z"/>
	<path id="Layer" class="s2" d="m992 2207l1 1zm-100 2l1 1z"/>
	<path id="Layer" class="s3" d="m978 2209l1 1z"/>
	<path id="Layer" class="s2" d="m1044 2210l1 1zm-165 1l1 1zm44 0l1 1zm93 0l1 1zm13 1l1 1z"/>
	<path id="Layer" class="s1" d="m1072 2212l1 1z"/>
	<path id="Layer" class="s2" d="m965 2213l1 1zm90.7 0.3l0.6 0.4zm-219.6 1.6l1 1zm53 0l1 1zm100 1l1 1zm53 0l1 1zm-205 1l1 1zm20.6 0.4l0.7 0.3zm46.3-0.3l1 1z"/>
	<path id="Layer" class="s1" d="m1081 2217c-0.4 6-3.4 11.2-8 15l6-15z"/>
	<path id="Layer" class="s2" d="m1027.7 2218.3l0.6 0.4zm-90.6 0.6l1 1zm37.6 0.4l0.7 0.3zm-99 1l0.7 0.4zm44 0l0.6 0.3zm144 0l0.7 0.3zm452.3-0.3l1 1zm-745 1l1 1zm179.4 1.7l0.3 0.6zm-109.3 2.4l1 1zm145 0l1 1zm-101.4 1.3l0.7 0.3z"/>
	<path id="Layer" class="s1" d="m969.3 2285c-1.4 4.6-2 14.9-6 18-3 2.3-9.7 1-13.3 1 4.5-26.1 20-53.1 29-78 6.8 16.3-4.7 43.2-9.7 59z"/>
	<path id="Layer" class="s2" d="m1554.7 2226.3l0.6 0.4zm-543.6 0.6l1 1zm66 0l1 1zm-144.7 2.7l0.3 0.7zm38.7-0.7l1 1zm573.7 0.3l0.6 0.4zm-493.3 1.3l0.3 0.7zm23.7-0.7l1 1zm-192 1l1 1zm-38 1l1 1zm53.3 0.7l0.4 0.6zm124.6 1.4l1 1zm42.4 0.6l0.3 0.7zm-184.3 0.3l1 1zm65 0l1 1zm-16.4 1.3l0.7 0.4zm38.3-0.3l1 1z"/>
	<path id="Layer" class="s1" d="m860 2258l-13 1v-22z"/>
	<path id="Layer" class="s3" d="m896 2237l1 1z"/>
	<path id="Layer" class="s2" d="m1009 2237l1 1zm49 0l1 1zm-59.7 1.7l0.4 0.6zm-119 1l0.3 0.7zm76.7 0.3l1 1zm65.3 0.7l0.3 0.6zm27 0l0.4 0.7zm-105.4 1.3l1 1zm12 0l1 1zm11 1l1 1zm68 0l1 1z"/>
	<path id="Layer" fill-rule="evenodd" class="s1" d="m1054 2243l1 1zm8 0l-1 4z"/>
	<path id="Layer" class="s2" d="m926 2244l1 1zm137.7 0.3l0.6 0.4z"/>
	<path id="Layer" class="s3" d="m996 2245l1 1z"/>
	<path id="Layer" class="s2" d="m1019.7 2247.3l0.6 0.4zm27 0l0.7 0.3zm-140.3 3.4l0.3 0.6zm57 0l0.3 0.7zm31 1l0.4 0.6zm57.6-0.6l1 1zm-162 1l1 1zm15 0l1 1z"/>
	<path id="Layer" class="s3" d="m1004 2253l1 1z"/>
	<path id="Layer" class="s2" d="m1060 2253l1 1z"/>
	<path id="Layer" class="s3" d="m1061 2253l1 1z"/>
	<path id="Layer" class="s2" d="m1030 2254l1 1zm37 1l1 1zm-178.7 1.7l0.4 0.6zm155.6-0.6l1 1zm6 0l1 1z"/>
	<path id="Layer" class="s3" d="m1051 2256l1 1z"/>
	<path id="Layer" class="s2" d="m960.3 2257.7l0.4 0.6zm32.3 0.7l0.7 0.3zm78.3-0.3l1 1z"/>
	<path id="Layer" class="s1" d="m1019 2283.8c13.2-8 26-22.1 42-22.9 4.8-0.3 10.3 4.2 14 6.8 11.7 8.3 26.8 22.8 32 36.3h-119c5.1-8.2 22.5-15 31-20.2z"/>
	<path id="Layer" class="s2" d="m853 2261l1 1zm18 0l1 1z"/>
	<path id="Layer" class="s1" d="m860 2304c-3.1 0-8.8 1.1-11.4-1-2.3-1.9-1.6-6.4-1.6-9 0-6.2-3.3-28.2 3.1-31 3.2-1.3 10.3-2.1 13.2 0 3.5 2.5 6 8.5 8.4 12 6.1 9.2 15.4 18.6 19.3 29z"/>
	<path id="Layer" class="s2" d="m918 2262l1 1zm97 0l1 1zm29 0l1 1zm-198.3 1.3l0.6 0.4zm54.4-0.4l1 1zm75 0l1 1zm26.6 0.4l0.7 0.3zm-84.7 0.7l1 1zm-76 1l1 1zm58 0l1 1zm-1 2l1 1zm35.4 0.7l0.3 0.6z"/>
	<path id="Layer" class="s1" d="m839 2268v36h-39c3.8-12.7 25.9-33.5 39-36z"/>
	<path id="Layer" class="s2" d="m945.3 2268.7l0.4 0.6z"/>
	<path id="Layer" class="s3" d="m752 2271l1 1z"/>
	<path id="Layer" class="s2" d="m869 2271l1 1zm104 2l1 1z"/>
	<path id="Layer" class="s3" d="m988 2273l1 1z"/>
	<path id="Layer" class="s1" d="m980 2301l-8 3 7-29z"/>
	<path id="Layer" class="s2" d="m1010.7 2277.3l0.6 0.4zm-13.6 1.6l1 1zm-69 1l1 1zm-19 1l1 1zm42 0l1 1zm-62 2l1 1zm19 0l1 1zm62 0l1 1zm-63 2l1 1z"/>
	<path id="Layer" class="s3" d="m887 2286l1 1z"/>
	<path id="Layer" class="s2" d="m906.3 2286.7l0.4 0.6zm-19.4 0.4l1 1zm-6 1l1 1zm24 0l1 1zm19 0l1 1zm59 0l1 1zm27 0l1 1z"/>
	<path id="Layer" class="s3" d="m994 2289l1 1z"/>
	<path id="Layer" class="s2" d="m904 2290l1 1zm194 0l1 1zm-163 2l1 1zm45.7 5.3l0.6 0.4zm11.4 0.6l1 1zm-26.4 2.4l0.7 0.3zm-22.3 1.4l0.3 0.6zm-12.3 0.3l1 1zm-39 2l1 1zm72 0l1 1zm13.3 1.7l0.3 0.7zm-36.3 0.3l1 1zm-153 1l1 1zm322 0l1 1zm-196 1l1 1zm-127 1l1 1zm107 0l1 1zm47 3h-2v-2zm25.3-0.3l0.4 0.6z"/>
	<path id="Layer" fill-rule="evenodd" class="s1" d="m135 2312v123l-1.6 9-9.4 1h-122v-133zm140 0v133h-122l-9.4-1-1.6-9v-123zm141 0v93c0 9.8 3.7 28.9-0.6 37.7-2.6 5.2-23.1 2.3-28.4 2.3h-77c-5.2 0-22.5 2.7-26-1.6-1.8-2.3-1-6.7-1-9.4v-122zm141 0v87l1 45-33 1h-91l-9-1.6-1-9.4v-122zm141 0v133h-122l-9.4-1-1.6-9v-123zm40 0c3.2 0 9.7-1.2 12 1.6 2.2 2.7 1.8 9 2.3 12.4 1.5 10.1 4.1 20 6 30 0.7 3.5 2.3 13.4 6.8 14 5.3 0.6 5.7-9.6 6.5-13 3.6-14.1 9.2-31.9 19.4-42.7 3.4-3.5 9.6-2.3 14-2.3h34v133h-122l-9.4-1-1.6-9v-123zm47 0l-19 39h-1l-7-39zm111 0.7c9.6 2.9 11.2 14.2 23 14.1 21.4 0 39.3-14.8 61-14.8v93c0 9.8 3.7 28.9-0.6 37.7-2.6 5.2-23.1 2.3-28.4 2.3h-77c-5.2 0-22.5 2.7-26-1.6-1.8-2.3-1-6.7-1-9.4v-122c14.9 0 34.7-3.5 49 0.7zm16-0.7l-2 3h-1l-2-3zm13 0c-1.7 5.8-3.8 8.4-10 7 2.3-4.8 4.6-6.8 10-7zm14 0c-2.2 4.8-4.8 6.5-10 7 2.3-4.8 4.6-6.8 10-7zm174 0c0 13.9-11.4 15.1-22 20.6-20.5 10.8-40.6 22.3-61 33.1-6.3 3.3-19.6 14-27 11.6-6.2-1.9-7.8-10.9-9.1-16.3-4.1-16.2-5.9-32.3-5.9-49zm-167 2l5-1z"/>
	<path id="Layer" class="s2" d="m1113.3 2312.7l0.4 0.6z"/>
	<path id="Layer" class="s1" d="m1262 2312v93c0 9.8 3.7 28.9-0.6 37.7-2.5 5.1-22.3 2.3-27.4 2.3h-73c-5.4 0-20.4 2.6-23.8-2.3-2.4-3.4-2-8.8-2.9-12.7-1.9-9.2-5.3-17.5-5.3-27 0-3.3-1.4-10.6 2.3-12.4 7-3.5 18.6 1.3 25.7 2.5 2.2 0.3 7.3 0.7 7.6-2.7 0.2-3.6-5-9.5-7-12.4-7.9-11.8-18.9-21-27-32.3-5-7-1.6-25.2-1.6-33.7zm141 0v93c0 9.8 3.7 28.9-0.6 37.7-2.6 5.2-23.1 2.3-28.4 2.3h-78c-5.2 0-22.5 2.7-26-1.6-1.8-2.3-1-6.7-1-9.4v-25-97zm141 0v97 25c0 2.7 0.8 7.1-1 9.4-3.5 4.3-20.8 1.6-26 1.6h-78c-5.3 0-25.8 2.9-28.4-2.3-4.3-8.8-0.6-27.9-0.6-37.7v-93zm141 0v93c0 9.8 3.7 28.9-0.6 37.7-2.6 5.2-23.1 2.3-28.4 2.3h-78c-5.2 0-22.5 2.7-26-1.6-1.8-2.3-1-6.7-1-9.4v-25-97zm140 0v133h-99-24l-9-1.6-1-9.4v-25-97zm141 0v87l1 45-43 1h-90v-133zm34 0v133c-5.1 0-21.6 2.7-25-1.6-1.8-2.3-1-6.7-1-9.4v-25-97z"/>
	<path id="Layer" class="s2" d="m959 2313l1 1zm-21 2l1 1zm14.7 1.3l0.6 0.4zm-4 2l0.7 0.3zm-33.7 0.7l1 1zm15 0v2l-2-2zm183 0l1 1zm-333 1l1 1z"/>
	<path id="Layer" class="s3" d="m928 2320l1 1z"/>
	<path id="Layer" class="s2" d="m1112 2321l1 1z"/>
	<path id="Layer" class="s1" d="m1121 2338l-20-5v-1l19-11z"/>
	<path id="Layer" class="s2" d="m934.7 2322.3l0.6 0.4z"/>
	<path id="Layer" class="s3" d="m924 2325l1 1z"/>
	<path id="Layer" class="s2" d="m777 2326l1 1z"/>
	<path id="Layer" class="s0" d="m774 2330l1 1z"/>
	<path id="Layer" class="s2" d="m775 2330l1 1zm-1 1l1 1zm-1 2l1 1z"/>
	<path id="Layer" class="s1" d="m1120.4 2347.2c3.2 7.6 2.3 28.8 0.2 36.8-0.9 3.3-3.3 5.5-3.5 9-0.8 9.3 3.9 17.6 3.9 27 0 5.5 2.5 19-1 23.4-2.8 3.4-13 1.6-17 1.6-1.5-11.6-4-23.6-6.7-35-1.1-4.7-4.6-10.9-3.8-15.8 1.7-10.7 21.8-6.3 25.5-15.3 1.7-4.3-5.3-9.8-7.6-12.9-13.1-18.2-23.1-16.3-43.4-15v-1l32-17c0.9 10.6 17.3 4.5 21.4 14.2z"/>
	<path id="Layer" class="s2" d="m1106.7 2334.3l0.6 0.4zm-12.6 0.6l1 1z"/>
	<path id="Layer" class="s3" d="m1111 2335l1 1z"/>
	<path id="Layer" class="s2" d="m1113.7 2336.3l0.6 0.4zm-358.3 2.3l0.3 0.7zm362.7-0.7l1 1zm2 1l1 1zm-36 1l1 1zm-2 1l1 1zm-326 2l1 1zm227.7 0.3l0.6 0.4zm143.4-0.4l1 1zm-358.4 1.4l0.7 0.3zm359.3-0.3l1 1zm-360 3l1 1zm-1 2l1 1zm324.4 1.7l0.3 0.6z"/>
	<path id="Layer" class="s1" d="m1065 2352l-1 7-5-4z"/>
	<path id="Layer" class="s2" d="m1098 2352l1 1zm-40.7 2.7l0.4 0.6z"/>
	<path id="Layer" class="s1" d="m1155 2387l-26-2v-31c10.8 7.7 19.4 21.7 26 33z"/>
	<path id="Layer" class="s2" d="m758.7 2355.3l0.6 0.4zm227.7 2.3l0.3 0.7zm-226.3 0.3l1 1z"/>
	<path id="Layer" class="s1" d="m1047.1 2383l5.9 38c8-0.3 9.5-6.8 13-13h2l16 37c-5.2 0-14 1.7-18.7-0.6-2-1-6.8-23.1-11-11.3-0.4 1.2-0.4 2.6-0.6 3.9l-0.7 5c-4.3-3.2-5.3-11-6.7-16-3.4-12.2-6.4-24.6-9.2-37-1-4.5-3-12.4-1.5-16.8 2.4-6.9 10.7-10.7 16.4-14.2z"/>
	<path id="Layer" class="s2" d="m1047 2360l1 1zm-2 1l1 1z"/>
	<path id="Layer" class="s3" d="m987 2362l1 1z"/>
	<path id="Layer" class="s2" d="m1052 2363l1 1zm-13 4h-2v-2zm12.3-1.3l0.4 0.6zm-289 3l0.3 0.7zm226.7 2.3l1 1z"/>
	<path id="Layer" class="s1" d="m996 2384.2c8.2 4.9 24.2-9.3 32-12.2-4.4 24.1 11.8 49.6 15 73h-55v-73c2.4 4.3 3.4 9.5 8 12.2z"/>
	<path id="Layer" class="s2" d="m1022 2373l1 1zm-31.7 1.7l0.4 0.6z"/>
	<path id="Layer" class="s1" d="m1097 2376l1 1zm12 4h-1l1-4z"/>
	<path id="Layer" class="s2" d="m1148 2376l1 1zm-157 1l1 1zm19 3l1 1zm75 4l1 1zm52.3 1.7l0.4 0.6zm-6.4 3.4l1 1zm-100.6 3.6l0.3 0.7zm55 1l0.4 0.6zm-37 8l0.3 0.7zm70.7 1.3l1 1zm-51 5l1 1zm-33.7 1.7l0.3 0.7zm87 1l0.4 0.6zm-70 3l0.3 0.7zm0.7 2.3l1 1zm-16 1l1 1zm2 10l1 1zm41 4h-1l-1-4z"/>
	<path id="Layer" class="s0" d="m1077 2429l1 1z"/>
	<path id="Layer" class="s2" d="m1127.7 2433.3l0.6 0.4zm-85.3 5.3l0.3 0.7zm0.7 2.3l1 1zm1 3l1 1zm12 3l1 1zm31 2l1 1zm44 2l1 1z"/>
	<path id="Layer" class="s1" d="m99 2452h25l9.4 1 1.6 9v24 99h-133v-133zm176 0v45c0 4.9 1.6 13.2-1.2 17.5-4.4 7-15.4 12.5-21.8 17.8-17 14-40.2 32.5-50 52.7h-60v-133zm141 0v5c-47.8 3.9-90.9 29.1-132 51-4.8-16.4-1-38.9-1-56zm141 0v133h-133v-49c0-6.5-1.7-15.8 0.6-22 6.1-16.6 32.5-22.3 42.2-37 9.1-14-9.8-23.6-21.8-22.9-7 0.4-14 1.8-21 1.9v-4zm141 0v133h-133v-133zm141 0v133h-133v-133zm141 0v133h-133v-133zm56 0c5.4 0 14.8-1.7 19.7 0.6 3.6 1.6 4.3 8.1 5.5 11.4 3.5 9.4 7.6 18.4 12.7 27 8 13.7 17.6 25.4 28.8 36.6 4.9 4.8 15.2 10.2 17.7 16.5 4.2 10.6 0.6 29.4 0.6 40.9h-133v-133zm50.8 0.6c5.5 2.5 4.7 12.2 9.7 15.7 8.3 5.8 9-12.6 8.5-16.3h16v82c-6.9-3-12.5-9.3-17.7-14.6-16.3-16.3-35.2-43.7-37.3-67.4 5.9 0 15.4-1.8 20.8 0.6zm44.2-0.6l6 93c-10.8-3.5-8-14.7-8-24v-69zm131 0v133h-133v-37c3 1.6 7.4 5.5 10.9 5 6.8-0.9 5.1-21.9 5.1-27 0-24.9-4.9-49.3-6-74zm141 0v133h-134v-133zm107 0h24l9 1.6 1 9.4v25 97h-134v-133zm175 0v133h-134v-133zm7 36v-25l1-9.4 9-1.6h24 99v133h-133zm274-36v133h-132v-133zm34 0v133h-26v-133z"/>
	<path id="Layer" class="s2" d="m1060 2459l1 1z"/>
	<path id="Layer" class="s1" d="m424 2474c0-2.9-1.1-8.9 1-11.2 1.7-1.8 6.6 0.4 9 0 8.7-1.3 27.2-5.1 25.6 10.2-0.6 5.6-5.4 8.6-9.6 11.5-9 6.1-17 13.5-26 19.5z"/>
	<path id="Layer" class="s2" d="m1133 2462l1 1z"/>
	<path id="Layer" class="s1" d="m283 2537c0-5.9-1.8-15.3 0.6-20.7 3.6-8.1 23.6-16.1 31.4-20.1 31.9-16 65.4-28.7 101-33.2 0 13.7 4.1 35.2-0.6 48-1.9 5.1-7.5 9-11 13-8.3 9.6-16.9 18.9-24.4 29.1-5.7 7.7-14.1 27.7-23.1 31.3-6.2 2.5-16.3 0.6-22.9 0.6h-51z"/>
	<path id="Layer" fill-rule="evenodd" class="s2" d="m1062.3 2464.7l0.4 0.6zm-604.4 0.4l1 1zm1 2l1 1zm-111 13l1 1zm720 0l1 1zm-724 1l1 1zm725 1l1 1zm-732 2l1 1zm734 1l1 1zm-614 1l1 1zm-135 5l1 1zm-4 2l1 1zm757 0l1 1zm-773 9l1 1zm120 3l-1 2zm-1 10l1 1zm-142 3l1 1zm-4 2l1 1z"/>
	<path id="Layer" class="s1" d="m275 2542v43h-64c11.3-25.4 42-46.1 63-63zm141 0v43h-49c12.8-22.6 29.7-44.6 48-63z"/>
	<path id="Layer" class="s2" d="m259 2533l1 1zm130 8l1 1zm-183 37l1 1zm156 1l1 1zm-162 7l1 1zm157 0l1 1zm-160 4l1 1zm157 1l1 1z"/>
	<path id="Layer" class="s1" d="m99 2593h25l9.4 1 1.6 9v24 99h-133v-133zm95 0c-5.9 17.9-21.4 33.2-28.7 51-1.5 3.8-7.6 12.5-5.9 16.7 2.3 5.4 20-5.6 23.6-7 25-9.9 48.5-24 74-32.7-3.9 15.1-8.8 30-13.1 45-0.9 2.9-6.2 13.1-1.7 14.6 4.3 1.5 8.1-3 10.8-5.5 6.9-6.3 13.8-13.4 22-18.1v69h-133v-133zm-1.9 18l12.1-17 20.8-1h50v38c0 5 1.3 12.1-0.7 16.8-3.1 7-15 14.3-21.3 18.2l16-53c-8.9-2.9-22 6-30 9.9-22.7 11-46.2 20.3-69 31.1zm90.9-4c0-3.3-1.2-9.6 1-12.4 2.7-3.4 13-1.6 17-1.6 15.9 0 36.7-3.5 52 1l-42 81h-1c0-12.5 1.2-25.6 2.7-38 0.3-3 1.6-11.2-2.9-11.8-8.2-1.1-19.4 12.7-26.8 15.8zm17 79c0 3.4-2.2 15.3 2.1 16.4 7.5 1.9 14.1-19.4 16.3-24.4 9-20.7 19.1-41.4 30.2-61 4-7 7.1-15.7 12.5-21.7 2.9-3.2 7.9-2.3 11.9-2.3h30c3.1 0 11.6-1.5 12.9 2.3 3.6 10.1 0.1 27.9 0.1 38.7v92h-133v-53l1-23 19-15c-0.2 17-3 33.9-3 51zm257-93v133h-133v-133zm141 0v133h-133v-133zm8 34v-24l1.6-9 9.4-1h25 97v133h-133zm141 2v-25c0-2.7-0.8-7.1 1-9.4 3.4-4.3 20.7-1.6 26-1.6h77c5.2 0 25.8-2.9 28.4 2.3 4.3 8.8 0.6 27.9 0.6 37.7v93c-7.4 0-19.4 2.3-26-1-7-3.5-12.8-12.9-17.3-19-2-2.7-10.1-17.9-13.7-15.9-4.1 2.2-0.3 7.4 1.3 9.9 5.6 8.7 14.4 16.7 18.7 26h-96zm274-36c0 16.8 4.1 39.8-0.4 55.9-1.8 6.5-13.3 10.3-16.8 17.1-9.9 18.9 0.8 42.2 8.2 60h-124v-133zm107 0h24l8.9 1.6 1.1 9.4v25 97h-70c4-11.2 10.5-20.5 8.7-33-4.4-30.3-43.3-50.8-71.7-44v-56zm41 40c0-9.8-3.8-28.9 0.6-37.7 2.5-5.2 23.1-2.3 28.4-2.3h78c5.2 0 22.5-2.7 25.9 1.6 1.8 2.3 1.1 6.7 1.1 9.4v25 97h-134zm141 0c0-9.8-3.8-28.9 0.6-37.7 2.5-5.2 23.1-2.3 28.4-2.3h78c5.2 0 22.5-2.7 25.9 1.6 1.8 2.3 1.1 6.7 1.1 9.4v25 97h-134zm236-40c-4.3 11.1-5.4 23.4-7.8 35-0.8 3.9-0.3 10.4-3.1 13.4-4.1 4.5-15.5 3.5-21.1 4.6-18.1 3.5-40.8 4.5-57 13v1l29 3.2 42 8.8-6 21-37 21v3c8.2 1.2 22.7 1.1 26-8h-4v-1c13.3-3.8 24.8-13 37-19.4 3.9-2 8.4-5.7 13-6 4.5-0.3 9 3.2 13 5 4.5 2 13.1 4.1 14.6 9.5 2.4 8.5 0.4 20.1 0.4 28.9h-134v-133zm37.4 1c2.5 2 1.6 7.2 1.6 10v29l-9.8 0.2-6.4-10.2-14.8-30c6.6 0 24.1-3.1 29.4 1zm8.6 11l1-10.4 9-1.6h24 99v133h-133v-26c4.9 1.1 10.7 6.9 15.8 5.3 5.3-1.7 1.4-7.3-0.3-10.3-5.3-9.5-12.9-20.4-15.5-31 7.6-5.1 16.3-9.7 21-18 3.9-7.1-1.7-14-9-14.9-4-0.4-8.1-0.1-12-0.1zm274-12v133h-132v-133zm34 0v133h-26v-133z"/>
	<path id="Layer" class="s2" d="m352 2595l1 1zm1293 0l1 1zm-2 10l1 1z"/>
	<path id="Layer" class="s1" d="m1665 2637l-19 3 5-29c6 6.1 11.9 17.7 14 26z"/>
	<path id="Layer" class="s2" d="m1653 2612l1 1zm-1472 2l1 1zm1460 1l1 1zm-1301 1l1 1zm-93 8l1 1zm1412 0l1 1zm-1348 1l1 1zm-138 3l1 1zm64.7 0.3l0.6 0.4zm-8 4l0.7 0.3zm-8.7 2.7l1 1zm32.4 0.7l0.3 0.6zm1421.7-0.7l1 1z"/>
	<path id="Layer" class="s1" d="m1693 2637l-1 18c10.1-3 6.4-11.5 1-18z"/>
	<path id="Layer" class="s2" d="m1694.3 2637.7l0.4 0.6z"/>
	<path id="Layer" class="s1" d="m1685 2639v11l-6-10z"/>
	<path id="Layer" class="s2" d="m211 2640l1 1zm117 0l1 1zm-161.3 1.3l0.6 0.4z"/>
	<path id="Layer" class="s1" d="m1669 2642l11 21-21 10.5-21-5.5 6-22z"/>
	<path id="Layer" class="s2" d="m250.3 2644.7l0.4 0.6zm1393.3 0.7l0.7 0.3zm54.6 0.4l0.4 0.6zm-1503.4 1.4l1 1zm1438 0l1 1zm39 0l1 1zm-1389.6 2.6l0.3 0.7zm868.3-0.4l0.7 0.4z"/>
	<path id="Layer" class="s3" d="m1623 2649l1 1z"/>
	<path id="Layer" class="s1" d="m1634 2649l-4 16-40-7v-2z"/>
	<path id="Layer" class="s2" d="m1673 2649l1 1zm-1511 2l1 1zm25 0l1 1zm91 2l1 1zm888 1l1 1zm-989 1l1 1z"/>
	<path id="Layer" class="s1" d="m1188.1 2678c8.9 12.3 12.4 35.4-1.5 46.4-3.9 3.1-11.9 1.6-16.6 1.6h-41v-70c19.9-3.7 47.1 5.3 59.1 22z"/>
	<path id="Layer" class="s2" d="m1589 2655l1 1zm115 0l1 1zm-586.3 3.3l0.6 0.4z"/>
	<path id="Layer" class="s1" d="m1121 2658v68h-1c-8-15.5-26.1-59.8 1-68z"/>
	<path id="Layer" class="s2" d="m1175 2658l1 1zm415.7 0.3l0.6 0.4zm97 0l0.7 0.3zm-1518.7 0.7l1 1zm1509 0l1 1zm-75 1l1 1zm-1357.6 2.7l0.3 0.6zm860.7-0.7l1 1zm74 0l1 1zm441.3 1.7l0.3 0.7zm-1305.3 0.3l1 1zm1309.3 0.7l0.4 0.6zm2.6 0.4l1 1zm-1313 1l1 1zm-55 2l1 1zm41.7 1.3l0.7 0.3z"/>
	<path id="Layer" class="s1" d="m1682.6 2670.1c4.1 2.3 2.4 12 2.4 15.9l-20-8v-1c3.7-2 13.4-9.2 17.6-6.9z"/>
	<path id="Layer" class="s2" d="m242.3 2671.7l0.4 0.6zm1442.6 0.4l1 1z"/>
	<path id="Layer" class="s1" d="m1632 2689l17-9c-10.1-8.9-14.7-1.1-17 9z"/>
	<path id="Layer" class="s2" d="m1667 2675l1 1zm-40 1l1 1zm28 5l1 1zm19 1l1 1zm16.7 0.3l0.6 0.4zm1 2l0.7 0.3zm-44.7 1.7l1 1z"/>
	<path id="Layer" class="s1" d="m1692 2687l3 4z"/>
	<path id="Layer" class="s2" d="m1637 2691l-1 2z"/>
	<path id="Layer" class="s0" d="m1637 2692l1 1z"/>
	<path id="Layer" class="s2" d="m925 2701l1 1zm2 3l1 1zm268.3 4.7l0.4 0.6zm410.6-0.6l1 1zm-1.6 1.6l0.3 0.7zm-498.3 0.3l1 1zm88 1l1 1zm-87 2l1 1zm489.3 2.7l0.4 0.6zm-407.7 6.7l0.7 0.3zm-242.7 5.7l1 1zm237 1l1 1zm-223 2l1 1zm156 1l1 1zm1 2l1 1z"/>
	<path id="Layer" fill-rule="evenodd" class="s1" d="m135 2735v122l-1 9.4-9 1.6h-123v-133zm140 0v133h-122l-9.4-1-1.6-9v-123zm141 0v133h-123l-9-1.6-1-9.4v-122zm141 0v133h-133v-133zm141 0v133h-123l-9-1.6-1-9.4v-122zm141 0v133h-123l-9-1.6-1-9.4v-122zm78 0c10.6 0 23.6-2 34 0.3 6.9 1.6 25.6 16.4 28.4 23 2 4.8 0.6 12.5 0.6 17.7v77c0 3.5 1.3 10.5-1 13.4-3.6 4.5-22.5 1.6-28 1.6h-77c-5.2 0-22.5 2.8-26-1.6-1.8-2.3-1-6.7-1-9.4v-122zm63 0v13l-15-13zm101 0c8.7 0 29.2-3.8 36.5 1 5.2 3.5 6.4 30.2 1.2 33.7-5.9 3.9-16.8 4.6-23.7 6.1-26.5 5.6-51.4 5.2-77-3.9-8.4-3.1-24.3-9.1-29-17.2-2.8-4.9-1-14.2-1-19.7zm97 0l-22 17.8-10 3.8-11.4-10.6-5.6-11zm-3.6 10.1l10.8-9.5 23.8-0.6h53v93c-31.1-7.2-61.5-25.3-86.1-45.2-7.8-6.4-19.6-12.5-23.9-21.8zm228.6-10.1v123c0 2.6 0.7 7.1-1.6 9-5.3 4.1-22.8 1-29.4 1h-74c-6.2 0-22.5 2.9-27.4-1-4.7-3.7-1.6-23.3-1.6-29 15.2 1.9 29.6 2 45 2 7.1 0 14.1 0.3 18 7 7.7-6.7-0.6-12.3-8-13.4-18.4-2.8-36.3 0-55-3.6v-95zm141 0v93c0 9.8 3.7 28.9-0.6 37.7-2.6 5.3-24.1 2.3-29.4 2.3h-77c-5.3 0-22.5 2.7-26-1.6-1.8-2.3-1-6.7-1-9.4v-122zm141 0v122c0 2.7 0.7 7.1-1.1 9.4-3.4 4.3-20.7 1.6-25.9 1.6h-78c-5.3 0-25.8 2.9-28.4-2.3-4.3-8.8-0.6-27.9-0.6-37.7v-93zm140 0v133h-122l-9.4-1-1.6-9v-123zm141 0v133h-132v-133zm34 0v133h-26v-133z"/>
	<path id="Layer" class="s2" d="m1121 2740l1 1zm5 7l2 2zm44 1l1 1zm-189 1l1 1z"/>
	<path id="Layer" class="s1" d="m1139 2762l-10 4v-15z"/>
	<path id="Layer" class="s2" d="m1163 2753l1 1zm-10 6l1 1zm-158 1l1 1z"/>
	<path id="Layer" class="s1" d="m1017 2779.4c34.9 10.7 69.6 6.8 104-4.4v67l-1 24.4-9 1.6h-24-99v-103c10.2 2.7 18.7 11.3 29 14.4zm112 16.6c0-5.5-2.7-21.2 2.3-24.6 12.5-8.6 19-0.1 28.7 7.8 20.5 16.5 41.5 30.9 65 42.5 7.7 3.9 15.9 7.3 24 10.2 3.3 1.3 8.8 1.5 11.4 4 3.6 3.4 3.1 25.4 1 29.8-1.4 2.9-5.7 2.3-8.4 2.3h-24-100z"/>
	<path id="Layer" class="s2" d="m1137 2768l1 1zm-126.3 1.3l0.6 0.4zm117.4 1.6l1 1zm37 3l1 1zm-50.4 2.4l0.7 0.3zm-81.7 0.7l1 1zm47.7 6.3l0.6 0.4zm101.4 4.6l1 1zm6 4l1 1zm14 9l1 1zm17 10l1 1zm2 1l1 1zm2 1l2 2z"/>
	<path id="Layer" class="s0" d="m1224 2813l1 1z"/>
	<path id="Layer" class="s2" d="m1226 2815l1 1zm2 1l1 1zm8 3l1 1zm16 7l1 1zm3.3 0.7l0.4 0.6z"/>
	<path id="Layer" class="s3" d="m1264 2829l1 1z"/>
	<path id="Layer" class="s2" d="m1271 2831l1 1zm4.7 1.3l0.6 0.4z"/>
	<path id="Layer" class="s1" d="m101 2875h24c2.6 0 7.1-0.8 9 1.6 4.5 5.7 1 25.2 1 32.4v91h-133v-125zm174 0v125h-133v-125zm141 0v125h-133v-125zm141 0v125h-133v-125zm141 0v125h-133v-125zm141 0v125h-133v-125zm8 34c0-7.2-3.5-26.7 1-32.4 1.9-2.4 6.4-1.6 9-1.6h24 99v125h-133zm274-34v125h-133v-125zm107 0h24c2.6 0 7.1-0.8 9 1.6 4.5 5.7 1 25.2 1 32.4v91h-134l1-42v-83zm41 37c0-9.1-3.4-26.5 0.6-34.7 2.6-5.2 23.1-2.3 28.4-2.3h78c5.2 0 22.5-2.7 26 1.6 4.5 5.7 1 25.2 1 32.4v91h-134zm141 0c0-9.1-3.4-26.5 0.6-34.7 2.6-5.3 24-2.3 29.4-2.3h77c5.2 0 22.5-2.7 26 1.6 3.7 4.7 1 19.6 1 25.4v70c0 5.4 2.8 23.4-1.6 27-2.4 1.9-7.5 1-10.4 1h-25-97zm241-37h24c2.6 0 7.1-0.7 9 1.6 4.5 5.7 1 25.2 1 32.4v91h-134v-125zm41 34c0-7.2-3.5-26.7 1-32.4 1.9-2.3 6.4-1.6 9-1.6h24 99v125h-133zm274-34v125h-132v-125zm34 0v125h-26v-125z"/>
</svg>